<svg xmlns="http://www.w3.org/2000/svg" viewBox="-1193.193 1966.464 280.7 90.883"><defs><style>.a{fill:none;}.a,.b{stroke:#221714;stroke-width:2.5px;}.b{fill:#fff;}</style></defs><g transform="translate(-1244 1537)"><path class="a" d="M-25.378-12.147a25.643,25.643,0,0,1-2.059-4.294L-31.555-14.5A23.232,23.232,0,0,1-29.2-10.264ZM-46.321.737c-2.235.765-4.53,1.529-6.589,2.177a26.943,26.943,0,0,1,1.236,5.647A34.355,34.355,0,0,1-46.321,5.5V19.856c0,1.823-.353,2.294-5.647,1.647,1.53,2.53,1.824,3.471,1.941,5.589,7.236-.764,7.824-1.882,7.824-5.412V3.619c2-.941,4-1.765,5.648-2.412A8.564,8.564,0,0,1-37.2-3.264a50.432,50.432,0,0,1-5,2.412V-7.97a26.578,26.578,0,0,1,4.353.47v-5a27.3,27.3,0,0,1-4.353.412v-7.648a2.256,2.256,0,0,1,1.059-2.118c1.235-1,.941-1.53-.882-1.471a19.046,19.046,0,0,1-4.942-.412c.353,1.765.647,5.118.647,11.707a37.416,37.416,0,0,1-6-.471v5a36.4,36.4,0,0,1,6-.529Zm16.178,3.471A30.529,30.529,0,0,0-22.378-6.735h.764c0,2.706-.117,6-.294,9.118h4.765c-.177-3.117-.294-6.412-.294-9.118h.647c2.529,4.883,4.765,7.824,9.178,10.942ZM-9.612,21.15h-7.648V15.738h7.648Zm-19.414,3.118H-9.612v2.647h4.294c-.176-2-.235-3.588-.235-6.883V5.56A31.04,31.04,0,0,0-2.434,7.443,11.554,11.554,0,0,1,.33,2.5,24.821,24.821,0,0,1-13.789-6.735c5.354,0,9.413.176,12.472.47v-3.942c-2.294.236-5.177.353-8.765.412a20.419,20.419,0,0,1,3.706-5.118c.588-.47.529-.823,0-.883a13.866,13.866,0,0,1-4.765-1.647,36.851,36.851,0,0,1-2.529,7.648h-3.765V-18.5c3.176-.412,6.294-.765,8.824-1.118a20.039,20.039,0,0,1,4.177-.118c.706.059.823-.706.058-1.294a16.578,16.578,0,0,1-3.059-4.3A38.428,38.428,0,0,1-17.2-22.442,94.088,94.088,0,0,1-35.32-21.266a10.678,10.678,0,0,1,1.471,4.295c2.648-.118,7.295-.529,12.236-1.059v8.236c-5.353,0-10.412-.118-13.648-.412v3.942c2.353-.294,5.647-.412,9.353-.47-2.647,4.765-8.118,10.118-14.06,13.413a9.58,9.58,0,0,1,3.353,2.647Q-34.762,8-33.085,6.678v14.06c0,3.294-.058,4.824-.235,6.883h4.294Zm0-8.53H-21.2V21.15h-7.825ZM-21.2,7.5V12.62h-7.825V7.5ZM-9.612,12.62h-7.648V7.5h7.648Z" transform="translate(305.035 457.485)"/><path class="a" d="M-32.59-7.809a68.641,68.641,0,0,0-3.176-7.53l-4.589,1.412a60.339,60.339,0,0,1,3,7.825Zm-18.825,19h-8.059v-8h8.059Zm0,11.883c-2.471.53-5.235,1.059-8.059,1.529V15.194h8.059Zm0-32.179V-.749h-8.059V-9.1Zm-12.472.118V25.253l-4.059.53a28.084,28.084,0,0,1,1.765,5.706,96.824,96.824,0,0,1,14.766-4.412c-.059,3.765-.294,7.706-.529,9.883h5.412A90.282,90.282,0,0,1-47,26.077c1.706-.353,3.118-.589,4.176-.765a7.927,7.927,0,0,1,.53-4.765A45.862,45.862,0,0,1-47,22.018v-31c1,.118,2.176.235,3.411.353V-13.4a97.85,97.85,0,0,1-11.707.412A100.108,100.108,0,0,1-67.417-13.4v4.765Q-65.3-8.9-63.887-8.985ZM-30.3,19.135c1.471,7.412,5.177,12.119,12.825,17.649a12.046,12.046,0,0,1,3.53-5.353c-7.472-2.294-11.825-7-15-17a114.5,114.5,0,0,1,13.883.589v-5a134.6,134.6,0,0,1-14,.529c.235-2.647.353-6,.412-10.53A100.672,100.672,0,0,1-16.706.545V-4.4c-2.765.295-5,.412-8.942.53,2.353-4.295,4.765-8.295,5.53-9,1.118-1.118,1.059-1.529.235-1.647a15.289,15.289,0,0,1-4.941-1.765A57.173,57.173,0,0,1-29.531-3.867c-5.412,0-9.766-.176-13.648-.53V.545A85.7,85.7,0,0,1-33.3.016c.059,4-.059,7.471-.236,10.53-4.589-.059-7.118-.176-10.589-.529v5a99.238,99.238,0,0,1,10.236-.589c-1,9.178-4.471,14.531-11.766,19.531A13.231,13.231,0,0,1-41.532,37.2C-35.061,31.136-31.943,26.489-30.3,19.135Z" transform="translate(261.537 447.616)"/><path class="a" d="M-5.423-11.441c.647-.883.47-1.177-.706-1.177a22.457,22.457,0,0,1-4.942-.589,30.414,30.414,0,0,1,.353,6V20.973a32.376,32.376,0,0,1-.589,6.824h5.353a57.105,57.105,0,0,1-.294-6.824V-7.088C-6.247-8.794-5.893-10.853-5.423-11.441ZM35.287-21.5c-3.588.236-9.354.53-14.355.53-7.883,0-11.295-.176-14.707-.647v4.883a132.983,132.983,0,0,1,14.825-.529h9.471v38.18c0,1.706-1.058,2.648-6.354,2.236a12.638,12.638,0,0,1,2.177,5.589c7.824-.883,8.707-2.235,8.707-7.06V-14.736C35.052-17.207,35.11-19.207,35.287-21.5ZM2.99-16.618a34.749,34.749,0,0,1-5.353-7.236l-4.177,2.471A29.487,29.487,0,0,1-1.3-13.618ZM5.7-7.794h12v4.707H5.7ZM1.519,13.738c-1.766.058-3.53.058-5.353,0l-.059,4.471a59.54,59.54,0,0,1,6.471-.883L17.7,16.443c0,2.942,0,6.53-.118,8.236h4.765c-.177-2.294-.294-5.295-.294-8.471a50.736,50.736,0,0,1,5.589-.118l-.059-4c-1,.176-3.412.53-5.53.706V-7.735c1.294.058,2.647.235,4.176.412v-4.648c-2.117.471-6.765.706-14.119.706a100.155,100.155,0,0,1-14.942-.764v4.647a30.785,30.785,0,0,1,4.353-.353ZM5.7,8.325h12v4.707l-12,.529ZM5.7.266h12V4.913H5.7Z" transform="translate(149.95 456.485)"/><path class="a" d="M-10.628-34.542c1.177-.647,1.177-.883-.118-1.177a34.3,34.3,0,0,1-4-1.647,26.672,26.672,0,0,1-7.412,11.237,8.626,8.626,0,0,1,4.765,1.883,86.263,86.263,0,0,1,4.471-7.471A13.075,13.075,0,0,1-10.628-34.542ZM6.314-29.777c-2-2.647-3.353-4.471-5.472-7l-3.471,2.353a24.128,24.128,0,0,1,4.883,7.589ZM-8.158-54.838a42.156,42.156,0,0,1-2.765-5.883l-4.412,1.706a14.783,14.783,0,0,1,2.471,5.883Zm6.824,2.353c2.941-3.588,3.941-4.765,4.589-5.059.941-.412.765-.824.118-1a14.193,14.193,0,0,1-4.589-2.118,65.67,65.67,0,0,1-3.647,8.236,133.721,133.721,0,0,1-15.531-.529v4.706A121.466,121.466,0,0,1-8.04-48.838v5.883a91.856,91.856,0,0,1-11.295-.53V-38.6A102.865,102.865,0,0,1-8.04-39.19v9.53c0,5.236-.647,5.471-6,4.53a9.533,9.533,0,0,1,2.059,5.589c7.648-1.235,8.3-2,8.3-6.295v-13.3A63.582,63.582,0,0,1,6.2-38.6v-4.883a98.367,98.367,0,0,1-9.883.53v-5.883a92.217,92.217,0,0,1,10.648.589v-4.706C4.726-52.72,2.078-52.544-1.333-52.485Zm16.06-.176V-63.78c2.529-.118,3.117-.177,7.471-.706,5.236-.647,6.236-.765,7.472-.53,1.471.294,1.824,0,.647-1.117a19.219,19.219,0,0,1-3-4.648C22.551-68.839,14.9-67.133,9.785-67.428A148.471,148.471,0,0,1,10.2-51.25c-.47,17.59-2.412,24.179-7.883,29.768,3,.824,3.882,1.235,5.353,2.412,4.883-7.354,6.824-15.237,7.06-29.532H20.08v20.766a80.219,80.219,0,0,1-.47,9.354h5.707a78.256,78.256,0,0,1-.471-9.354V-48.6a29.513,29.513,0,0,1,6.236.765v-5.53a34.541,34.541,0,0,1-8.707.706ZM-7.158-65.839a102.272,102.272,0,0,1-11.236-.588v5a97.157,97.157,0,0,1,12.707-.647,88.16,88.16,0,0,1,12.177.647v-5c-2.294.295-5,.47-8.648.588-.647-2.529-1-4.118-1.471-6.177l-5.3,1.059C-8.275-69.369-7.687-67.6-7.158-65.839Z" transform="translate(97.974 504.117)"/><path class="b" d="M-13.355-17.093V-35.637h-3.017v10.484l.05,1.978-.05.024-1.113-1.656-7.393-10.83h-2.967v18.544H-24.8V-28.046l-.025-2,.05-.025,1.113,1.681,7.912,11.3Z" transform="translate(154.246 535.845)"/><path class="b" d="M-12.443-17.093h3.832l-6.651-18.544h-4.08l-6.6,18.544h3.635l1.236-3.981h7.418Zm-4.92-16.046h.074l.519,1.928,2.225,7.244h-5.637l2.25-7.244Z" transform="translate(169.159 535.845)"/><path class="b" d="M-12.808-2.917l-.074-3.165H-26.629L-26.7-2.917h5.217V12.462h3.462V-2.917Z" transform="translate(186.361 506.29)"/><path class="b" d="M0-17.093H3.461V-35.637H0Z" transform="translate(176.247 535.845)"/><path class="b" d="M-14.632-8.82c0-6.676-2.25-9.568-7.912-9.568-5.686,0-7.961,2.893-7.961,9.568S-28.156.8-22.544.8C-16.881.8-14.632-2.045-14.632-8.82Zm-3.56,0c0,5.093-1.162,6.478-4.352,6.478S-26.92-3.7-26.92-8.82s1.187-6.428,4.352-6.428C-19.329-15.248-18.192-13.962-18.192-8.82Z" transform="translate(213.823 518.3)"/><path class="b" d="M-13.355-17.093V-35.637h-3.017v10.484l.05,1.978-.05.024-1.113-1.656-7.393-10.83h-2.967v18.544H-24.8V-28.046l-.025-2,.05-.025,1.113,1.681,7.912,11.3Z" transform="translate(230.373 535.845)"/><path class="b" d="M-12.443-17.093h3.832l-6.651-18.544h-4.08l-6.6,18.544h3.635l1.236-3.981h7.418Zm-4.92-16.046h.074l.519,1.928,2.225,7.244h-5.637l2.25-7.244Z" transform="translate(245.286 535.845)"/><path class="b" d="M-3.168-14.2V-29.6H-6.6v18.544H4.844l.074-3.14Z" transform="translate(245.602 529.811)"/><path class="b" d="M-11.259-12.375c0-6.3-8.827-4.747-8.827-8.135,0-1.186.791-2.2,3.313-2.2a13,13,0,0,1,4.451.84l.445-2.942a12.953,12.953,0,0,0-5.069-.989c-4.475,0-6.428,2.448-6.428,5.464,0,6.206,8.827,4.7,8.827,8.184,0,1.607-1.063,2.522-3.363,2.522A10.022,10.022,0,0,1-23-11.016l-.47,3.041A11.4,11.4,0,0,0-17.884-6.59C-13.681-6.59-11.259-8.79-11.259-12.375Z" transform="translate(341.515 525.688)"/><path class="b" d="M-13.355-17.093V-35.637h-3.017v10.484l.05,1.978-.05.024-1.113-1.656-7.393-10.83h-2.967v18.544H-24.8V-28.046l-.025-2,.05-.025,1.113,1.681,7.912,11.3Z" transform="translate(287.932 535.845)"/><path class="b" d="M-3.146-14.29v-5.143H4.074v-2.794H-3.146V-26.7H5.36l-.049-3.09H-6.558v18.544H5.681l.074-3.041Z" transform="translate(285.239 530)"/><path class="b" d="M-9.207,0-12.2,13.327l-.371,1.953h-.074l-.371-1.953L-15.66,0h-3.535l4.426,18.544h4.1L-7.847,5.316l.4-1.978h.074l.37,1.978,2.819,13.228H-.058L4.342,0H.955L-1.69,13.253l-.347,1.953h-.074l-.42-1.953L-5.5,0Z" transform="translate(312.093 500.208)"/><path class="b" d="M-13.423,0h-3.412V11.868c0,2.67-1.187,3.857-3.857,3.857S-24.6,14.538-24.6,11.868V0h-3.387V11.893c0,4.772,2.571,7,7.294,7,4.747,0,7.269-2.25,7.269-7Z" transform="translate(80.042 500.208)"/><path class="b" d="M-12.626-12.17a4.147,4.147,0,0,0-3.189-4.451v-.049a3.905,3.905,0,0,0,2.5-4.006c0-2.992-1.928-4.7-5.81-4.7h-7.194V-6.829h7.393C-14.455-6.829-12.626-8.857-12.626-12.17Zm-3.412-.272c0,2.077-.964,2.744-2.868,2.744h-4.129v-5.341h4.055C-16.9-15.038-16.038-14.247-16.038-12.442Zm-.544-7.615c0,1.656-.791,2.423-2.522,2.423h-3.931v-4.8h3.783C-17.4-22.431-16.582-21.787-16.582-20.057Z" transform="translate(96.75 525.581)"/><path class="b" d="M-3.145-14.29v-5.143h7.22v-2.794h-7.22V-26.7H5.36l-.049-3.09H-6.557v18.544H5.681l.074-3.041Z" transform="translate(94.019 530)"/><path class="b" d="M-11.988-5.128c0-3.807-2.1-5.563-6.453-5.563h-6.552V7.852h3.412V.559h3.165l3.66,7.293h4.005L-15.325-.109C-13.174-.628-11.988-2.408-11.988-5.128ZM-15.524-5c0,2.226-.89,2.918-2.992,2.918h-3.066V-7.773h3.165C-16.364-7.773-15.524-7.056-15.524-5Z" transform="translate(127.808 510.899)"/></g></svg>