<svg xmlns="http://www.w3.org/2000/svg" xmlns:xlink="http://www.w3.org/1999/xlink" viewBox="-360 1576 375.5 608.276"><defs><style>.a,.b,.f{fill:none;}.b,.c,.f{stroke:#000;}.b,.c{stroke-width:3px;}.c,.g{fill:#fff;}.d{clip-path:url(#a);}.e{fill:#040809;}.f{stroke-width:1.2px;font-size:45px;font-family:PingFangSC-Regular, PingFang SC;}.h{stroke:none;}</style><clipPath id="a"><path class="a" d="M0-28.665H218.723V1.8H0Z" transform="translate(0 28.665)"/></clipPath></defs><g transform="translate(-360 1526)"><line class="b" x2="375.5" transform="translate(0 173.5)"/><line class="b" x2="375.5" transform="translate(0 193.5)"/><line class="b" x2="375.5" transform="translate(0 213.5)"/><line class="b" x2="375.5" transform="translate(0 233.5)"/><line class="b" x2="375.5" transform="translate(0 253.5)"/><line class="b" x2="375.5" transform="translate(0 273.5)"/><line class="b" x2="375.5" transform="translate(0 293.5)"/><line class="b" x2="375.5" transform="translate(0 313.5)"/><line class="b" x2="375.5" transform="translate(0 333.5)"/><line class="b" x2="375.5" transform="translate(0 353.5)"/><line class="b" x2="375.5" transform="translate(0 373.5)"/><line class="b" x2="375.5" transform="translate(0 393.5)"/><line class="b" x2="375.5" transform="translate(0 413.5)"/><line class="b" x2="375.5" transform="translate(0 433.5)"/><line class="b" x2="375.5" transform="translate(0 453.5)"/><line class="b" x2="375.5" transform="translate(0 473.5)"/><line class="b" x2="375.5" transform="translate(0 493.5)"/><line class="b" x2="375.5" transform="translate(0 513.5)"/><line class="b" x2="375.5" transform="translate(0 533.5)"/><line class="b" x2="64.085" transform="translate(0 553.5)"/><path d="M1.5,1.5H253.785v379h-7.148V360.049l-3.928,1L31.814,381.5,1.5,380.5Z" transform="translate(60 172)"/><path class="c" d="M1.5,1.5,234.016,20.476V358.441L1.5,379.225Z" transform="translate(63.101 173.276)"/><path class="c" d="M1.5,1.5,209.684,19.572V337.04L1.5,355.112Z" transform="translate(78.245 184.875)"/><g transform="translate(264.135 259.278)"><g class="b" transform="translate(0 0)"><rect class="h" width="9.036" height="204.216" rx="4.518"/><rect class="a" x="1.5" y="1.5" width="6.036" height="201.216" rx="3.018"/></g><g class="c" transform="translate(2.711 0)"><rect class="h" width="9.036" height="204.216" rx="4.518"/><rect class="a" x="1.5" y="1.5" width="6.036" height="201.216" rx="3.018"/></g></g><line class="b" x2="69" transform="translate(306.5 552.5)"/><g transform="translate(7 -1525)"><path class="c" d="M20.169-.64C30.449.516,46.27,4.293,47.507,9.872s-12.93,4.623-22.284,4.566c-6.715.049-15.485.7-19.583-1.7s-7.021-6.519-6.256-10S9.889-1.8,20.169-.64Z" transform="translate(93.965 2158.947) rotate(-17)"/><path class="c" d="M11.9,2.466c5.794,0,8.674,1.43,10.4,6.041s-1.5,7.875-9.324,7.22S1.939,11.86,2.017,8.577,6.1,2.466,11.9,2.466Z" transform="translate(67.824 2166.869) rotate(-17)"/><path class="c" d="M18.284.207c7.319.823,12.33,3.109,13.211,7.081s-5.569,7.26-11.515,9.659-9.35,1.641-12.268-.061S-.506,6.079.039,3.6,10.965-.616,18.284.207Z" transform="matrix(0.839, -0.545, 0.545, 0.839, 242.563, 2125.831)"/><path class="c" d="M7.988,0C12.672,0,15,1.156,16.4,4.884s-1.21,6.367-7.539,5.837S-.063,7.595,0,4.941,3.3,0,7.988,0Z" transform="translate(237.358 2132.087) rotate(24)"/><path class="c" d="M17.512-.7C26.485.312,40.295,3.609,41.374,8.479s-11.287,4.035-19.451,3.985c-5.861.043-13.516.607-17.094-1.48S-1.3,5.293-.632,2.251,8.538-1.705,17.512-.7Z" transform="translate(181.191 2118.328) rotate(-25)"/><path class="c" d="M10.64,2.466c5.057,0,7.571,1.248,9.08,5.273s-1.306,6.874-8.139,6.3S1.948,10.666,2.017,7.8,5.583,2.466,10.64,2.466Z" transform="translate(159.049 2128.09) rotate(-25)"/><path class="c" d="M17.512-.7C26.485.312,40.295,3.609,41.374,8.479s-11.287,4.035-19.451,3.985c-5.861.043-13.516.607-17.094-1.48S-1.3,5.293-.632,2.251,8.538-1.705,17.512-.7Z" transform="translate(171.191 2158.328) rotate(-25)"/><path class="c" d="M10.64,2.466c5.057,0,7.571,1.248,9.08,5.273s-1.306,6.874-8.139,6.3S1.948,10.666,2.017,7.8,5.583,2.466,10.64,2.466Z" transform="translate(149.049 2168.09) rotate(-25)"/><path class="c" d="M14.142.041C19.8.63,23.66,2.366,24.316,5.433s-4.355,5.652-8.971,7.547-7.243,1.33-9.49.033S-.431,4.706.007,2.782,8.486-.548,14.142.041Z" transform="translate(233.461 2072.505) rotate(-12)"/><path class="c" d="M6.13-.016c3.595-.009,5.379.887,6.444,3.791s-.941,4.967-5.8,4.567S-.063,5.922-.009,3.853,2.535-.007,6.13-.016Z" transform="translate(224.507 2079.299) rotate(24)"/><path class="c" d="M9.525.108c3.813.429,6.423,1.62,6.882,3.689s-2.9,3.782-6,5.032S5.537,9.684,4.017,8.8s-4.281-5.63-4-6.923S5.712-.321,9.525.108Z" transform="matrix(0.839, -0.545, 0.545, 0.839, 273.96, 2067.767)"/><path class="c" d="M4.161,0C6.6,0,7.814.6,8.542,2.544s-.63,3.317-3.927,3.041S-.033,3.957,0,2.574,1.721,0,4.161,0Z" transform="translate(271.248 2073.026) rotate(24)"/></g><g transform="translate(78 71.198)"><g class="d" transform="translate(0 0)"><g transform="translate(0 0.623)"><path class="e" d="M1.33.043V16.5c0,5.495-2.432,7.776-8.136,7.776s-8.137-2.281-8.137-7.776V-.678h-5.494a.637.637,0,0,0-.721.721V16.766c0,9.187,5.854,12.4,14.352,12.4s14.351-3.213,14.351-12.4V-.678H2.05A.637.637,0,0,0,1.33.043" transform="translate(21.158 0.678)"/></g><g transform="translate(79.319 0.623)"><path class="e" d="M1.349.282A.756.756,0,0,0,2.16-.2L3.751-4.132c.09-.239,0-.359-.24-.359H-18.616c-2.071,0-2.852.63-2.852,2.042V23.1c0,1.2.6,1.741,2.192,1.741H1.349a.756.756,0,0,0,.811-.48l1.591-3.933c.09-.24,0-.36-.24-.36H-15.374V14.874c0-1.8.991-2.612,3.663-2.612h8.2a.755.755,0,0,0,.81-.48L-1.173,8c.09-.24,0-.36-.24-.36H-15.374V.282Z" transform="translate(21.468 4.491)"/></g><g transform="translate(40.485 0.623)"><path class="e" d="M1,1.456H-9.841V-3.919c0-1.8.992-2.611,3.664-2.611H1c3.452,0,4.413,1.321,4.413,4.023S4.454,1.456,1,1.456M-9.841-18.45h9.7C3.1-18.45,4-17.228,4-14.7S3.1-10.943-.14-10.943h-9.7ZM6.766-9.293c2.4-1.261,3.392-3.633,3.392-6.425,0-6.486-5.283-7.446-10.748-7.446H-13.08c-2.071,0-2.852.63-2.852,2.042V4.429c0,1.2.6,1.741,2.192,1.741H1.632c5.795,0,9.938-2.252,9.938-8.106,0-3.513-1.5-6.486-4.8-7.356" transform="translate(15.932 23.164)"/></g><g transform="translate(115.12 0.624)"><path class="e" d="M.964.8H-9.245V-8.082H.964c3.812,0,4.654,1.471,4.654,4.443C5.618-.637,4.777.8.964.8M12.433,16.026,5.859,4.738c3.273-.841,5.914-3,5.914-8.5,0-7.116-4.413-9.037-11.708-9.037h-12.55c-2.071,0-2.853.63-2.853,2.042v26.57a.637.637,0,0,0,.721.721h5.374V7.981c0-1.8.992-2.612,3.664-2.612h5.4L5.768,16.057a.818.818,0,0,0,.81.479h5.585c.39,0,.39-.331.27-.51" transform="translate(15.339 12.796)"/></g><g transform="translate(154.339 0)"><path class="e" d="M1.366.024,6.017,3.849,3.386,6.389-1.142,2.412ZM-3.681.215v7.52H7.577V11.07H1.672v14.8c0,.367.185.549.49.549H3.936c.4,0,.612-.183.643-.643l.4-4.283,3.366.735L7.67,27.465c-.184,1.622-1.011,2.111-2.539,2.111H.05A2.106,2.106,0,0,1-2.244,27.4V11.07H-3.713c-.244,8.536-2.142,13.983-6.3,18.664l-2.967-2.171c3.7-4.314,5.416-9.761,5.446-16.492h-5.416l.765-3.335h4.651V.215ZM-18.155,29.551v-14.5c-.8,1.162-1.622,2.263-2.478,3.335l-1.1-4.744A46.242,46.242,0,0,0-15.187-.374L-11.332.759a54.4,54.4,0,0,1-2.875,7.4V29.551Z" transform="translate(21.735 0.374)"/></g><g transform="translate(190.085 0.588)"><path class="e" d="M.025,1.518A45.227,45.227,0,0,0,13-1.023v-9.027h3.948v7.284a35.052,35.052,0,0,0,7.863-5.662l2.57,3.061C19.791,1.67,10.826,4.607.545,5.341Zm7.589-23.9v7.865h5.415v-9.633h3.946v2.564h9.271v3.335H16.976v3.734h11.26v3.334H-.25l.826-3.334H3.7v-7.865Zm2.018,15.3a77.916,77.916,0,0,1-7.5,6.487L-.4-3.623a57.475,57.475,0,0,0,7.435-6.426Z" transform="translate(0.403 24.147)"/></g></g></g><text class="f" transform="translate(69 100.241)"><tspan x="6.5" y="48">极简博物馆</tspan></text><rect class="g" width="375" height="21" transform="translate(0 50)"/></g></svg>