<svg xmlns="http://www.w3.org/2000/svg" viewBox="1877.278 3043.924 189.588 200.043"><defs><style>.a{fill:#fff;stroke:#000;stroke-width:3px;}.b{stroke:none;}.c{fill:none;}</style></defs><g transform="translate(-1134 2851)"><g transform="translate(1406.071 -3397.902) rotate(17)"><g class="a" transform="translate(2630.746 2950.598)"><rect class="b" width="148.144" height="163.892"/><rect class="c" x="1.5" y="1.5" width="145.144" height="160.892"/></g><g class="a" transform="translate(2642.163 2964.144)"><rect class="b" width="125.312" height="139.262"/><rect class="c" x="1.5" y="1.5" width="122.312" height="136.262"/></g><g class="a" transform="translate(2647.87 2970.302)"><rect class="b" width="113.896" height="126.947"/><rect class="c" x="1.5" y="1.5" width="110.896" height="123.947"/></g></g><g transform="translate(-728.275 -1041.655) rotate(-29)"><path class="a" d="M41.3,1.5A39.8,39.8,0,0,1,81.1,41.3c0,21.98-17.818,61-39.8,61S1.5,63.277,1.5,41.3A39.8,39.8,0,0,1,41.3,1.5Z" transform="translate(2661.485 2980.332)"/><path class="a" d="M10.88,0A10.74,10.74,0,0,1,21.76,10.594c0,5.851-4.871,1.574-10.88,1.574S0,16.444,0,10.594A10.74,10.74,0,0,1,10.88,0Z" transform="translate(2713.343 3070.631) rotate(180)"/><path class="a" d="M12.33,1.5A10.69,10.69,0,0,1,23.16,12.044c0,5.823-4.849-2.2-10.83-2.2S1.5,17.867,1.5,12.044A10.69,10.69,0,0,1,12.33,1.5Z" transform="translate(2707.918 3004.433)"/><path class="a" d="M12.33,1.5A10.69,10.69,0,0,1,23.16,12.044c0,5.823-4.849-2.052-10.83-2.052S1.5,17.867,1.5,12.044A10.69,10.69,0,0,1,12.33,1.5Z" transform="translate(2672.987 3004.433)"/><path class="a" d="M4.936-7.572c1.9,0,3.436,6.733,3.436,8.631a3.436,3.436,0,1,1-6.872,0C1.5-.839,3.038-7.572,4.936-7.572Z" transform="translate(2697.528 3031.737)"/><g class="a" transform="translate(2672.417 3027.859)"><circle class="b" cx="9.5" cy="9.5" r="9.5"/><circle class="c" cx="9.5" cy="9.5" r="8"/></g><g class="a" transform="translate(2714.417 3027.859)"><circle class="b" cx="9.5" cy="9.5" r="9.5"/><circle class="c" cx="9.5" cy="9.5" r="8"/></g></g></g></svg>