<svg xmlns="http://www.w3.org/2000/svg" viewBox="131.806 1937.5 280.7 103.848"><defs><style>.a{fill:none;stroke:#000;font-size:57px;font-family:PingFangSC-Regular, PingFang SC;}.a,.b{stroke-width:2.5px;}.b{fill:#fff;stroke:#221714;}</style></defs><g transform="translate(85 1526)"><text class="a" transform="translate(67 414)"><tspan x="7" y="60">优步联播</tspan></text><g transform="translate(-4 -5)"><path class="b" d="M-13.355-17.093V-35.637h-3.017v10.484l.05,1.978-.05.024-1.113-1.656-7.393-10.83h-2.967v18.544H-24.8V-28.046l-.025-2,.05-.025,1.113,1.681,7.912,11.3Z" transform="translate(154.246 535.845)"/><path class="b" d="M-12.443-17.093h3.832l-6.651-18.544h-4.08l-6.6,18.544h3.635l1.236-3.981h7.418Zm-4.92-16.046h.074l.519,1.928,2.225,7.244h-5.637l2.25-7.244Z" transform="translate(169.159 535.845)"/><path class="b" d="M-12.808-2.917l-.074-3.165H-26.629L-26.7-2.917h5.217V12.462h3.462V-2.917Z" transform="translate(186.361 506.29)"/><path class="b" d="M0-17.093H3.461V-35.637H0Z" transform="translate(176.247 535.845)"/><path class="b" d="M-14.632-8.82c0-6.676-2.25-9.568-7.912-9.568-5.686,0-7.961,2.893-7.961,9.568S-28.156.8-22.544.8C-16.881.8-14.632-2.045-14.632-8.82Zm-3.56,0c0,5.093-1.162,6.478-4.352,6.478S-26.92-3.7-26.92-8.82s1.187-6.428,4.352-6.428C-19.329-15.248-18.192-13.962-18.192-8.82Z" transform="translate(213.823 518.3)"/><path class="b" d="M-13.355-17.093V-35.637h-3.017v10.484l.05,1.978-.05.024-1.113-1.656-7.393-10.83h-2.967v18.544H-24.8V-28.046l-.025-2,.05-.025,1.113,1.681,7.912,11.3Z" transform="translate(230.373 535.845)"/><path class="b" d="M-12.443-17.093h3.832l-6.651-18.544h-4.08l-6.6,18.544h3.635l1.236-3.981h7.418Zm-4.92-16.046h.074l.519,1.928,2.225,7.244h-5.637l2.25-7.244Z" transform="translate(245.286 535.845)"/><path class="b" d="M-3.168-14.2V-29.6H-6.6v18.544H4.844l.074-3.14Z" transform="translate(245.602 529.811)"/><path class="b" d="M-11.259-12.375c0-6.3-8.827-4.747-8.827-8.135,0-1.186.791-2.2,3.313-2.2a13,13,0,0,1,4.451.84l.445-2.942a12.953,12.953,0,0,0-5.069-.989c-4.475,0-6.428,2.448-6.428,5.464,0,6.206,8.827,4.7,8.827,8.184,0,1.607-1.063,2.522-3.363,2.522A10.022,10.022,0,0,1-23-11.016l-.47,3.041A11.4,11.4,0,0,0-17.884-6.59C-13.681-6.59-11.259-8.79-11.259-12.375Z" transform="translate(341.515 525.688)"/><path class="b" d="M-13.355-17.093V-35.637h-3.017v10.484l.05,1.978-.05.024-1.113-1.656-7.393-10.83h-2.967v18.544H-24.8V-28.046l-.025-2,.05-.025,1.113,1.681,7.912,11.3Z" transform="translate(287.932 535.845)"/><path class="b" d="M-3.146-14.29v-5.143H4.074v-2.794H-3.146V-26.7H5.36l-.049-3.09H-6.558v18.544H5.681l.074-3.041Z" transform="translate(285.239 530)"/><path class="b" d="M-9.207,0-12.2,13.327l-.371,1.953h-.074l-.371-1.953L-15.66,0h-3.535l4.426,18.544h4.1L-7.847,5.316l.4-1.978h.074l.37,1.978,2.819,13.228H-.058L4.342,0H.955L-1.69,13.253l-.347,1.953h-.074l-.42-1.953L-5.5,0Z" transform="translate(312.093 500.208)"/><path class="b" d="M-13.423,0h-3.412V11.868c0,2.67-1.187,3.857-3.857,3.857S-24.6,14.538-24.6,11.868V0h-3.387V11.893c0,4.772,2.571,7,7.294,7,4.747,0,7.269-2.25,7.269-7Z" transform="translate(80.042 500.208)"/><path class="b" d="M-12.626-12.17a4.147,4.147,0,0,0-3.189-4.451v-.049a3.905,3.905,0,0,0,2.5-4.006c0-2.992-1.928-4.7-5.81-4.7h-7.194V-6.829h7.393C-14.455-6.829-12.626-8.857-12.626-12.17Zm-3.412-.272c0,2.077-.964,2.744-2.868,2.744h-4.129v-5.341h4.055C-16.9-15.038-16.038-14.247-16.038-12.442Zm-.544-7.615c0,1.656-.791,2.423-2.522,2.423h-3.931v-4.8h3.783C-17.4-22.431-16.582-21.787-16.582-20.057Z" transform="translate(96.75 525.581)"/><path class="b" d="M-3.145-14.29v-5.143h7.22v-2.794h-7.22V-26.7H5.36l-.049-3.09H-6.557v18.544H5.681l.074-3.041Z" transform="translate(94.019 530)"/><path class="b" d="M-11.988-5.128c0-3.807-2.1-5.563-6.453-5.563h-6.552V7.852h3.412V.559h3.165l3.66,7.293h4.005L-15.325-.109C-13.174-.628-11.988-2.408-11.988-5.128ZM-15.524-5c0,2.226-.89,2.918-2.992,2.918h-3.066V-7.773h3.165C-16.364-7.773-15.524-7.056-15.524-5Z" transform="translate(127.808 510.899)"/></g></g></svg>