<svg xmlns="http://www.w3.org/2000/svg" viewBox="-1687.931 1637.276 295.885 319.054"><defs><style>.a,.b{fill:#fff;}.a,.h,.i{stroke:#000;}.a,.b,.c,.h,.i{stroke-width:3px;}.b,.c,.d,.f{stroke:#221714;}.c,.d,.f,.g,.h{fill:none;}.d{stroke-width:2.5px;}.e{fill:#cde0f4;}.f{stroke-width:5px;}.j{stroke:none;}</style></defs><g transform="translate(-1727 1547)"><g class="a" transform="translate(236.602 90.276)"><circle class="j" cx="19.531" cy="19.531" r="19.531"/><circle class="g" cx="19.531" cy="19.531" r="18.031"/></g><g transform="translate(1697 -1679.323)"><path class="b" d="M-128.33-64.165A134.014,134.014,0,0,1-262.344,69.849,134.013,134.013,0,0,1-396.357-64.165,134.013,134.013,0,0,1-262.344-198.178,134.013,134.013,0,0,1-128.33-64.165Z" transform="translate(-1247.032 1989.776)"/><path class="c" d="M-33.017-5.264h-14.27a1.425,1.425,0,0,1-1.008-.417l-10.16-10.16a1.426,1.426,0,0,0-1.008-.417h-23.89a1.425,1.425,0,0,0-1.008.417L-91.6-8.6a1.425,1.425,0,0,0-.417,1.008v3.723a1.425,1.425,0,0,1-.417,1.008l-9.121,9.12a1.425,1.425,0,0,0-.417,1.008v15.12a1.425,1.425,0,0,0,.417,1.008l12.8,12.8a1.426,1.426,0,0,0,1.008.417h25.178a1.425,1.425,0,0,1,1.425,1.425v7.434a1.425,1.425,0,0,0,.417,1.008l4.791,4.792a1.425,1.425,0,0,1,.417,1.007V62.2a1.425,1.425,0,0,1-.417,1.008l-3.723,3.723a1.424,1.424,0,0,0-.417,1.007v5.227a1.425,1.425,0,0,0,.417,1.007l6.421,6.421a1.422,1.422,0,0,1,.417,1.008v6.567a1.423,1.423,0,0,0,.418,1.008l9,9a1.423,1.423,0,0,0,1.007.417h6.92a1.425,1.425,0,0,0,1.008-.417L-21.885,85.58a1.425,1.425,0,0,0,.417-1.008V73.481a1.425,1.425,0,0,1,.417-1.008l6.013-6.012a1.425,1.425,0,0,0,.417-1.008V47.8a1.425,1.425,0,0,1,.417-1.008l17.6-17.6a1.425,1.425,0,0,0-1.008-2.432H-10.645a1.425,1.425,0,0,1-1.008-.417L-20.5,17.5a1.425,1.425,0,0,1-.417-1.008V6.832a1.426,1.426,0,0,0-.417-1.008L-32.009-4.847A1.425,1.425,0,0,0-33.017-5.264Z" transform="translate(-1500.725 1924.231)"/><path class="d" d="M0-.242V4.7a.564.564,0,0,0,.166.4L4.7,9.632a.569.569,0,0,1,.165.4v3.119a.568.568,0,0,1-.165.4l-1.6,1.6a.567.567,0,0,0-.166.4v2.05a.567.567,0,0,0,.566.566.566.566,0,0,1,.4.967l-.9.9A.567.567,0,0,0,3.4,21H8.219a.566.566,0,0,0,.4-.166l3.4-3.4a.567.567,0,0,0,.165-.4V14.751a.566.566,0,0,0-.566-.566h-1.16a.567.567,0,0,1-.566-.566V11.708a.567.567,0,0,0-.165-.4L5.171,6.756a.566.566,0,0,1-.166-.4V1.832a.567.567,0,0,0-.566-.566H2.64A.567.567,0,0,1,2.073.7V-.242a.567.567,0,0,0-.566-.566H.566A.567.567,0,0,0,0-.242Z" transform="translate(-1587.787 1854.754)"/><path class="d" d="M-2.837-1.532V1.849A.544.544,0,0,1-3,2.236L-5.639,4.878a.544.544,0,0,1-.386.16h-2.19a.547.547,0,0,1-.546-.546V2.61a.546.546,0,0,1,.16-.387l.869-.869A.546.546,0,0,0-8.118.422h-.1a.547.547,0,0,1-.546-.547V-1.532a.547.547,0,0,1,.546-.546h1.228a.544.544,0,0,0,.386-.16l2.334-2.334a.548.548,0,0,1,.386-.16h.817a.548.548,0,0,1,.387.16l.891.892a.544.544,0,0,1,.16.386v.67a.547.547,0,0,1-.546.546H-2.29A.547.547,0,0,0-2.837-1.532Z" transform="translate(-1586.166 1869.517)"/><path class="e" d="M0,0,.009-.013H0Z" transform="translate(-1533.152 1918.979)"/><path class="f" d="M0,0,.009-.013H0Z" transform="translate(-1533.152 1918.979)"/><path class="c" d="M-290.821-36.112-298-29.969l-7.683-12.677-4.982,4.982-1.254-2.865a1.429,1.429,0,0,0-1.429-1.429h-.308a2.087,2.087,0,0,0-1.475.611l-5.217,5.217a5.27,5.27,0,0,0-1.544,3.727v2.4a5.27,5.27,0,0,0,1.544,3.727l1.707,1.707a2.245,2.245,0,0,1,0,3.174,2.244,2.244,0,0,1-3.173,0l-3.855-3.855a2.422,2.422,0,0,0-3.426,0l-1.548,1.547a5.415,5.415,0,0,1-3.829,1.586h-5.508a1.258,1.258,0,0,1-1.258-1.258v-1.79a.855.855,0,0,0-.854-.854h-1.578a1.592,1.592,0,0,0-1.126.467L-366.174-4.18a1.339,1.339,0,0,1-1.895,0l-1.675-1.675a1.949,1.949,0,0,1-.571-1.377v-3.541a1.946,1.946,0,0,0-.57-1.377l-2.159-2.159a.925.925,0,0,1-.271-.654.925.925,0,0,1,1.579-.654l2.883,2.883h3.693l2.9-2.9a1.346,1.346,0,0,0,0-1.9l-8.6-8.6h-6.5L-379.4-28.19l2.349-2.349-3.1-3.1h-5.6l-4.02,4.02H-394.2l-5.655,5.655v5.617l-5,5v4.463L-415.632,1.884v9.233l2.539,2.539,4.616-4.617,2.232,2.232V16.5l1.693,1.693V21.3h2.185l3.724-3.724v-4.4l2.985-2.985V8.354l-1.547-1.546V-.155l5.193-5.193V-8.2l3.232-3.231,4.078,4.078-6.463,6.463V5.462h10.271l3.731,3.731h-9.31l-1.615,1.616v2.154h1.385v1.855h-3.047l-2.454,2.453V22.08l-2.808,2.808h-12.079l-1.935-1.935,1.219-1.22V17.864l1.154-1.154-1.362-1.362-3.155,3.155V27.35h-3.462l-9.617,9.617h-6.924v1.385l5.078,5.078v3.993a1.47,1.47,0,0,1-1.47,1.469h-8.516a2.823,2.823,0,0,0-2,.828l-.384.383a2.824,2.824,0,0,0-.828,2v6.971a2.826,2.826,0,0,0,.827,2,2.824,2.824,0,0,0,2,.827h5.926a2.561,2.561,0,0,0,1.81-.749l9.483-9.484a1.923,1.923,0,0,1,1.923-1.923h1.727a3.631,3.631,0,0,0,2.568-1.064l.6-.6a2.435,2.435,0,0,1,3.445,0l7.826,7.825a2.89,2.89,0,0,1,.839,2.03,1.006,1.006,0,0,0,1.718.705l.613-.613a1.364,1.364,0,0,0,.4-.965v-.621a3.172,3.172,0,0,0-.929-2.242l-6.22-6.221a1.405,1.405,0,0,1-.277-1.59,1.447,1.447,0,0,1,1.327-.8h1.48a1.4,1.4,0,0,1,.99.41l5.85,5.85a2.529,2.529,0,0,1,.741,1.789v1.982a2.528,2.528,0,0,0,.741,1.789l4.124,4.124a.6.6,0,0,0,.422.174h2.352a.6.6,0,0,0,.422-1.018l-2.094-2.094a2.074,2.074,0,0,1-.58-1.021,2.009,2.009,0,0,1,1.96-2.445h2.11a2.007,2.007,0,0,1,2.007,2.007v1.333a3.082,3.082,0,0,0,.9,2.179l2.11,2.111a3.082,3.082,0,0,0,2.179.9h6.792a2.307,2.307,0,0,1,2.151,1.364,2.244,2.244,0,0,1-.48,2.453l-4.331,4.331a1.364,1.364,0,0,1-.966.4h-2.417a1.364,1.364,0,0,0-.966.4l-1.962,1.962h2.264a5.829,5.829,0,0,1,4.122,1.707l7.9,7.9a6.523,6.523,0,0,1,1.834,4.606,6.56,6.56,0,0,0,1.921,4.585l8.065,8.065a4.432,4.432,0,0,0,3.134,1.3h1.766a4.432,4.432,0,0,0,3.134-1.3l10.959-10.958a3.176,3.176,0,0,0,0-4.492l-1.346-1.346a2.357,2.357,0,0,0-3.332,0L-340.8,85.7a2.357,2.357,0,0,1-3.332,0l-5.592-5.591a2.7,2.7,0,0,1-.79-1.908v-.829a2.777,2.777,0,0,1,1.725-2.621,2.7,2.7,0,0,1,2.881.611l3.508,3.508a5.459,5.459,0,0,0,3.861,1.6h.043A5.26,5.26,0,0,1-334.7,82a5.459,5.459,0,0,0,3.926,1.665h8.543l9.694,9.694v6.854l7.669,7.669a1.776,1.776,0,0,0,2.512,0l1.07-1.07a1.779,1.779,0,0,0,.52-1.256v-4.8a3.53,3.53,0,0,1,1.034-2.5l8.511-8.511a3.531,3.531,0,0,1,2.5-1.034h3.5a3.529,3.529,0,0,1,2.5,1.034l2.524,2.523a4.863,4.863,0,0,1,1.425,3.439v.952a4.863,4.863,0,0,0,1.424,3.439l3.288,3.288v6.474a1.784,1.784,0,0,0,.523,1.262l6.482,6.482c1.243,1.244,2.732.894,3.083-.828a1.787,1.787,0,0,0-.486-1.621l-6.248-6.248a1.784,1.784,0,0,1-.523-1.262v-2.637a1.317,1.317,0,0,1,2.248-.932l4.523,4.523a2.568,2.568,0,0,0,3.632,0l4.578-4.578v-4.27l-5.944-5.943,3.4-3.4h12.118l10.644-10.644V71.59l-5.438-5.437,3.418-3.418-4.27-4.27,4.3-4.3,3,3h4.039V68.127l6.574-5.537c.745-9.772-6.853-34.559-19.16-53.709C-260.728-13.776-261.477-13.853-290.821-36.112Z" transform="translate(-1152.994 1844.399)"/><path class="g" d="M64.494-474.7A134.014,134.014,0,0,0,198.507-340.691h0A134.014,134.014,0,0,0,332.521-474.7h0A134.014,134.014,0,0,0,198.507-608.718h0A134.013,134.013,0,0,0,64.494-474.7" transform="translate(-1707.883 2400.316)"/></g><g class="a" transform="translate(39.069 360.373)"><ellipse class="j" cx="147.943" cy="24.478" rx="147.943" ry="24.478"/><ellipse class="g" cx="147.943" cy="24.478" rx="146.443" ry="22.978"/></g><g class="a" transform="translate(39.069 352.325)"><ellipse class="j" cx="147.943" cy="24.478" rx="147.943" ry="24.478"/><ellipse class="g" cx="147.943" cy="24.478" rx="146.443" ry="22.978"/></g><path class="a" d="M14.283,1.5h181.88a12.783,12.783,0,0,1,12.783,12.783v132.21a12.783,12.783,0,0,1-12.783,12.783H14.283A12.783,12.783,0,0,1,1.5,146.493V14.283A12.783,12.783,0,0,1,14.283,1.5Z" transform="translate(81.581 221.166)"/><g class="a" transform="translate(92.211 231.796)"><rect class="j" width="187.724" height="140.245" rx="12"/><rect class="g" x="1.5" y="1.5" width="184.724" height="137.245" rx="10.5"/></g><g class="h" transform="translate(210 261)"><ellipse class="j" cx="25.061" cy="25.061" rx="25.061" ry="25.061"/><ellipse class="g" cx="25.061" cy="25.061" rx="23.561" ry="23.561"/></g><g class="h" transform="translate(250.55 332.132)"><ellipse class="j" cx="5.049" cy="5.049" rx="5.049" ry="5.049"/><ellipse class="g" cx="5.049" cy="5.049" rx="3.549" ry="3.549"/></g><g class="h" transform="translate(238.029 332.132)"><ellipse class="j" cx="5.049" cy="5.049" rx="5.049" ry="5.049"/><ellipse class="g" cx="5.049" cy="5.049" rx="3.549" ry="3.549"/></g><g class="a" transform="translate(251.002 146.457)"><rect class="j" width="9.701" height="72.759" rx="4.851"/><rect class="g" x="1.5" y="1.5" width="6.701" height="69.759" rx="3.351"/></g><g class="h" transform="translate(225.507 332.132)"><ellipse class="j" cx="5.049" cy="5.049" rx="5.049" ry="5.049"/><ellipse class="g" cx="5.049" cy="5.049" rx="3.549" ry="3.549"/></g><g class="h" transform="translate(212.986 332.132)"><ellipse class="j" cx="5.049" cy="5.049" rx="5.049" ry="5.049"/><ellipse class="g" cx="5.049" cy="5.049" rx="3.549" ry="3.549"/></g><g class="h" transform="translate(105.36 261.387)"><ellipse class="j" cx="40.421" cy="40.421" rx="40.421" ry="40.421"/><ellipse class="g" cx="40.421" cy="40.421" rx="38.921" ry="38.921"/></g><g class="h" transform="translate(115.87 271.897)"><circle class="j" cx="30.316" cy="30.316" r="30.316"/><circle class="g" cx="30.316" cy="30.316" r="28.816"/></g><g class="h" transform="translate(135.272 291.299)"><ellipse class="j" cx="10.914" cy="10.914" rx="10.914" ry="10.914"/><ellipse class="g" cx="10.914" cy="10.914" rx="9.414" ry="9.414"/></g><rect width="4.851" height="38.805" rx="2.425" transform="translate(253.427 110.078)"/><g class="a" transform="translate(243.602 97.276)"><ellipse class="j" cx="12.531" cy="12.531" rx="12.531" ry="12.531"/><ellipse class="g" cx="12.531" cy="12.531" rx="11.031" ry="11.031"/></g><g class="i" transform="translate(250.069 103.743)"><circle class="j" cx="6.063" cy="6.063" r="6.063"/><circle class="g" cx="6.063" cy="6.063" r="4.563"/></g><path class="h" d="M-1008.493,1835.787v22.339l18.619-11.531Z" transform="translate(1235.993 -1560.287)"/></g></svg>