<svg xmlns="http://www.w3.org/2000/svg" xmlns:xlink="http://www.w3.org/1999/xlink" viewBox="-801.5 1584.198 375 503.821"><defs><style>.a,.b,.g{fill:none;}.b,.c,.d,.g{stroke:#000;}.b,.c,.d{stroke-width:3px;}.d{fill:#fff;}.e{clip-path:url(#a);}.f{fill:#040809;}.g{stroke-width:1.2px;font-size:45px;font-family:PingFangSC-Regular, PingFang SC;}.h{stroke:none;}</style><clipPath id="a"><path class="a" d="M0-28.665H218.723V1.8H0Z" transform="translate(0 28.665)"/></clipPath></defs><g transform="translate(-802 1526)"><line class="b" x2="375" transform="translate(0.5 173.5)"/><line class="b" x2="375" transform="translate(0.5 193.5)"/><line class="b" x2="375" transform="translate(0.5 213.5)"/><line class="b" x2="375" transform="translate(0.5 233.5)"/><line class="b" x2="375" transform="translate(0.5 253.5)"/><line class="b" x2="375" transform="translate(0.5 273.5)"/><line class="b" x2="375" transform="translate(0.5 293.5)"/><line class="b" x2="375" transform="translate(0.5 313.5)"/><line class="b" x2="375" transform="translate(0.5 333.5)"/><line class="b" x2="375" transform="translate(0.5 353.5)"/><line class="b" x2="375" transform="translate(0.5 373.5)"/><line class="b" x2="375" transform="translate(0.5 393.5)"/><line class="b" x2="375" transform="translate(0.5 413.5)"/><line class="b" x2="375" transform="translate(0.5 433.5)"/><line class="b" x2="375" transform="translate(0.5 453.5)"/><line class="b" x2="375" transform="translate(0.5 473.5)"/><line class="b" x2="375" transform="translate(0.5 493.5)"/><line class="b" x2="375" transform="translate(0.5 513.5)"/><line class="b" x2="375" transform="translate(0.5 533.5)"/><line class="b" x2="375" transform="translate(0.5 553.5)"/><g class="c" transform="translate(59 168.438)"><rect class="h" width="254.426" height="387.164"/><rect class="a" x="1.5" y="1.5" width="251.426" height="384.164"/></g><g class="d" transform="translate(62.234 172.109)"><rect class="h" width="253.348" height="389.91"/><rect class="a" x="1.5" y="1.5" width="250.348" height="386.91"/></g><g class="d" transform="translate(77.327 183.997)"><rect class="h" width="226.396" height="365.197"/><rect class="a" x="1.5" y="1.5" width="223.396" height="362.197"/></g><g class="b" transform="translate(275.057 254.549)"><rect class="h" width="9.006" height="209.302" rx="4.503"/><rect class="a" x="1.5" y="1.5" width="6.006" height="206.302" rx="3.003"/></g><g class="d" transform="translate(273.858 254.549)"><rect class="h" width="9.006" height="209.302" rx="4.503"/><rect class="a" x="1.5" y="1.5" width="6.006" height="206.302" rx="3.003"/></g><g class="d" transform="translate(274 475)"><circle class="h" cx="4.5" cy="4.5" r="4.5"/><circle class="a" cx="4.5" cy="4.5" r="3"/></g><g class="d" transform="translate(273 475)"><circle class="h" cx="4.5" cy="4.5" r="4.5"/><circle class="a" cx="4.5" cy="4.5" r="3"/></g><g transform="translate(78 58.198)"><g class="e" transform="translate(0 0)"><g transform="translate(0 0.623)"><path class="f" d="M1.33.043V16.5c0,5.495-2.432,7.776-8.136,7.776s-8.137-2.281-8.137-7.776V-.678h-5.494a.637.637,0,0,0-.721.721V16.766c0,9.187,5.854,12.4,14.352,12.4s14.351-3.213,14.351-12.4V-.678H2.05A.637.637,0,0,0,1.33.043" transform="translate(21.158 0.678)"/></g><g transform="translate(79.319 0.623)"><path class="f" d="M1.349.282A.756.756,0,0,0,2.16-.2L3.751-4.132c.09-.239,0-.359-.24-.359H-18.616c-2.071,0-2.852.63-2.852,2.042V23.1c0,1.2.6,1.741,2.192,1.741H1.349a.756.756,0,0,0,.811-.48l1.591-3.933c.09-.24,0-.36-.24-.36H-15.374V14.874c0-1.8.991-2.612,3.663-2.612h8.2a.755.755,0,0,0,.81-.48L-1.173,8c.09-.24,0-.36-.24-.36H-15.374V.282Z" transform="translate(21.468 4.491)"/></g><g transform="translate(40.485 0.623)"><path class="f" d="M1,1.456H-9.841V-3.919c0-1.8.992-2.611,3.664-2.611H1c3.452,0,4.413,1.321,4.413,4.023S4.454,1.456,1,1.456M-9.841-18.45h9.7C3.1-18.45,4-17.228,4-14.7S3.1-10.943-.14-10.943h-9.7ZM6.766-9.293c2.4-1.261,3.392-3.633,3.392-6.425,0-6.486-5.283-7.446-10.748-7.446H-13.08c-2.071,0-2.852.63-2.852,2.042V4.429c0,1.2.6,1.741,2.192,1.741H1.632c5.795,0,9.938-2.252,9.938-8.106,0-3.513-1.5-6.486-4.8-7.356" transform="translate(15.932 23.164)"/></g><g transform="translate(115.12 0.624)"><path class="f" d="M.964.8H-9.245V-8.082H.964c3.812,0,4.654,1.471,4.654,4.443C5.618-.637,4.777.8.964.8M12.433,16.026,5.859,4.738c3.273-.841,5.914-3,5.914-8.5,0-7.116-4.413-9.037-11.708-9.037h-12.55c-2.071,0-2.853.63-2.853,2.042v26.57a.637.637,0,0,0,.721.721h5.374V7.981c0-1.8.992-2.612,3.664-2.612h5.4L5.768,16.057a.818.818,0,0,0,.81.479h5.585c.39,0,.39-.331.27-.51" transform="translate(15.339 12.796)"/></g><g transform="translate(154.339 0)"><path class="f" d="M1.366.024,6.017,3.849,3.386,6.389-1.142,2.412ZM-3.681.215v7.52H7.577V11.07H1.672v14.8c0,.367.185.549.49.549H3.936c.4,0,.612-.183.643-.643l.4-4.283,3.366.735L7.67,27.465c-.184,1.622-1.011,2.111-2.539,2.111H.05A2.106,2.106,0,0,1-2.244,27.4V11.07H-3.713c-.244,8.536-2.142,13.983-6.3,18.664l-2.967-2.171c3.7-4.314,5.416-9.761,5.446-16.492h-5.416l.765-3.335h4.651V.215ZM-18.155,29.551v-14.5c-.8,1.162-1.622,2.263-2.478,3.335l-1.1-4.744A46.242,46.242,0,0,0-15.187-.374L-11.332.759a54.4,54.4,0,0,1-2.875,7.4V29.551Z" transform="translate(21.735 0.374)"/></g><g transform="translate(190.085 0.588)"><path class="f" d="M.025,1.518A45.227,45.227,0,0,0,13-1.023v-9.027h3.948v7.284a35.052,35.052,0,0,0,7.863-5.662l2.57,3.061C19.791,1.67,10.826,4.607.545,5.341Zm7.589-23.9v7.865h5.415v-9.633h3.946v2.564h9.271v3.335H16.976v3.734h11.26v3.334H-.25l.826-3.334H3.7v-7.865Zm2.018,15.3a77.916,77.916,0,0,1-7.5,6.487L-.4-3.623a57.475,57.475,0,0,0,7.435-6.426Z" transform="translate(0.403 24.147)"/></g></g></g><text class="g" transform="translate(69 96.241)"><tspan x="6.5" y="48">极简博物馆</tspan></text></g></svg>