<svg xmlns="http://www.w3.org/2000/svg" viewBox="-360 1594.472 375.5 486.528"><defs><style>.a{font-size:26px;font-family:PingFangHK-Regular, PingFang HK;}.b{fill:#fff;}.b,.c{stroke:#000;stroke-width:3px;}.c,.e{fill:none;}.d{stroke:none;}</style></defs><g transform="translate(-360 1526)"><text class="a" transform="translate(69 112.241)"><tspan x="54" y="28">极简博物馆</tspan></text><g transform="translate(103.908 69.972)"><path class="b" d="M-7.874-11.448H-18.95v-5.491c0-1.84,1.011-2.668,3.742-2.668h7.334c3.527,0,4.509,1.35,4.509,4.11s-.981,4.049-4.509,4.049M-18.95-31.784h9.91c3.312,0,4.233,1.248,4.233,3.834s-.921,3.834-4.233,3.834h-9.91Zm16.965,9.355c2.453-1.289,3.466-3.712,3.466-6.564,0-6.625-5.4-7.607-10.981-7.607H-22.26c-2.117,0-2.914.644-2.914,2.086v26.1c0,1.227.614,1.779,2.239,1.779h15.7c5.921,0,10.154-2.3,10.154-8.282,0-3.589-1.534-6.625-4.907-7.515" transform="translate(75.138 36.6)"/><path class="b" d="M-9.037-2.22a.832.832,0,0,0,.884-.491l1.735-4.018c.1-.245,0-.369-.262-.369H-30.811c-2.259,0-3.11.645-3.11,2.087v26.1c0,1.227.654,1.779,2.39,1.779H-9.037a.832.832,0,0,0,.884-.491l1.735-4.019c.1-.245,0-.368-.262-.368H-27.275V12.686c0-1.84,1.08-2.668,3.994-2.668h8.94a.832.832,0,0,0,.884-.491l1.67-3.865c.1-.245,0-.368-.263-.368H-27.275V-2.22Z" transform="translate(132.766 7.156)"/><g transform="translate(0 0.417)"><path class="b" d="M-27.21-.347V16.175c0,5.517,2.434,7.808,8.143,7.808s8.145-2.291,8.145-7.808V-1.07h5.5A.638.638,0,0,1-4.7-.347V16.446c0,9.226-5.86,12.452-14.365,12.452s-14.364-3.226-14.364-12.452V-1.07h5.5a.638.638,0,0,1,.721.723" transform="translate(33.431 1.07)"/></g><path class="b" d="M-7.58-6.324H-18.01V-15.4H-7.58c3.9,0,4.754,1.5,4.754,4.538,0,3.068-.859,4.54-4.754,4.54M4.136,9.227-2.582-2.306c3.345-.858,6.043-3.067,6.043-8.68,0-7.269-4.508-9.233-11.962-9.233H-21.322c-2.117,0-2.913.644-2.913,2.086V9.012a.651.651,0,0,0,.735.737h5.49V1.007c0-1.84,1.012-2.668,3.743-2.668h5.521l6.074,10.92a.836.836,0,0,0,.828.491h5.7c.4,0,.4-.339.277-.522" transform="translate(171.883 20.243)"/></g><line class="c" x2="375.5" transform="translate(0 173.5)"/><line class="c" x2="375.5" transform="translate(0 193.5)"/><line class="c" x2="375.5" transform="translate(0 213.5)"/><line class="c" x2="375.5" transform="translate(0 233.5)"/><line class="c" x2="375.5" transform="translate(0 253.5)"/><line class="c" x2="375.5" transform="translate(0 273.5)"/><line class="c" x2="375.5" transform="translate(0 293.5)"/><line class="c" x2="375.5" transform="translate(0 313.5)"/><line class="c" x2="375.5" transform="translate(0 333.5)"/><line class="c" x2="375.5" transform="translate(0 353.5)"/><line class="c" x2="375.5" transform="translate(0 373.5)"/><line class="c" x2="375.5" transform="translate(0 393.5)"/><line class="c" x2="375.5" transform="translate(0 413.5)"/><line class="c" x2="375.5" transform="translate(0 433.5)"/><line class="c" x2="375.5" transform="translate(0 453.5)"/><line class="c" x2="375.5" transform="translate(0 473.5)"/><line class="c" x2="375.5" transform="translate(0 493.5)"/><line class="c" x2="375.5" transform="translate(0 513.5)"/><line class="c" x2="375.5" transform="translate(0 533.5)"/><line class="c" x2="64.085" transform="translate(0 553.5)"/><path d="M1.5,1.5H253.785v379h-7.148V360.049l-3.928,1L31.814,381.5,1.5,380.5Z" transform="translate(60 172)"/><path class="b" d="M1.5,1.5,234.016,20.476V358.441L1.5,379.225Z" transform="translate(63.101 173.276)"/><path class="b" d="M1.5,1.5,209.684,19.572V337.04L1.5,355.112Z" transform="translate(78.245 184.875)"/><g transform="translate(264.135 259.278)"><g class="c" transform="translate(0 0)"><rect class="d" width="9.036" height="204.216" rx="4.518"/><rect class="e" x="1.5" y="1.5" width="6.036" height="201.216" rx="3.018"/></g><g class="b" transform="translate(2.711 0)"><rect class="d" width="9.036" height="204.216" rx="4.518"/><rect class="e" x="1.5" y="1.5" width="6.036" height="201.216" rx="3.018"/></g></g><line class="c" x2="69" transform="translate(306.5 552.5)"/></g></svg>