<svg xmlns="http://www.w3.org/2000/svg" viewBox="-360 1594.472 375.5 589.803"><defs><style>.a{font-size:26px;font-family:PingFangHK-Regular, PingFang HK;}.b{fill:#fff;}.b,.c{stroke:#000;stroke-width:3px;}.c,.e{fill:none;}.d{stroke:none;}</style></defs><g transform="translate(-360 1526)"><text class="a" transform="translate(69 112.241)"><tspan x="54" y="28">极简博物馆</tspan></text><g transform="translate(103.908 69.972)"><path class="b" d="M-7.874-11.448H-18.95v-5.491c0-1.84,1.011-2.668,3.742-2.668h7.334c3.527,0,4.509,1.35,4.509,4.11s-.981,4.049-4.509,4.049M-18.95-31.784h9.91c3.312,0,4.233,1.248,4.233,3.834s-.921,3.834-4.233,3.834h-9.91Zm16.965,9.355c2.453-1.289,3.466-3.712,3.466-6.564,0-6.625-5.4-7.607-10.981-7.607H-22.26c-2.117,0-2.914.644-2.914,2.086v26.1c0,1.227.614,1.779,2.239,1.779h15.7c5.921,0,10.154-2.3,10.154-8.282,0-3.589-1.534-6.625-4.907-7.515" transform="translate(75.138 36.6)"/><path class="b" d="M-9.037-2.22a.832.832,0,0,0,.884-.491l1.735-4.018c.1-.245,0-.369-.262-.369H-30.811c-2.259,0-3.11.645-3.11,2.087v26.1c0,1.227.654,1.779,2.39,1.779H-9.037a.832.832,0,0,0,.884-.491l1.735-4.019c.1-.245,0-.368-.262-.368H-27.275V12.686c0-1.84,1.08-2.668,3.994-2.668h8.94a.832.832,0,0,0,.884-.491l1.67-3.865c.1-.245,0-.368-.263-.368H-27.275V-2.22Z" transform="translate(132.766 7.156)"/><g transform="translate(0 0.417)"><path class="b" d="M-27.21-.347V16.175c0,5.517,2.434,7.808,8.143,7.808s8.145-2.291,8.145-7.808V-1.07h5.5A.638.638,0,0,1-4.7-.347V16.446c0,9.226-5.86,12.452-14.365,12.452s-14.364-3.226-14.364-12.452V-1.07h5.5a.638.638,0,0,1,.721.723" transform="translate(33.431 1.07)"/></g><path class="b" d="M-7.58-6.324H-18.01V-15.4H-7.58c3.9,0,4.754,1.5,4.754,4.538,0,3.068-.859,4.54-4.754,4.54M4.136,9.227-2.582-2.306c3.345-.858,6.043-3.067,6.043-8.68,0-7.269-4.508-9.233-11.962-9.233H-21.322c-2.117,0-2.913.644-2.913,2.086V9.012a.651.651,0,0,0,.735.737h5.49V1.007c0-1.84,1.012-2.668,3.743-2.668h5.521l6.074,10.92a.836.836,0,0,0,.828.491h5.7c.4,0,.4-.339.277-.522" transform="translate(171.883 20.243)"/></g><line class="c" x2="375.5" transform="translate(0 173.5)"/><line class="c" x2="375.5" transform="translate(0 193.5)"/><line class="c" x2="375.5" transform="translate(0 213.5)"/><line class="c" x2="375.5" transform="translate(0 233.5)"/><line class="c" x2="375.5" transform="translate(0 253.5)"/><line class="c" x2="375.5" transform="translate(0 273.5)"/><line class="c" x2="375.5" transform="translate(0 293.5)"/><line class="c" x2="375.5" transform="translate(0 313.5)"/><line class="c" x2="375.5" transform="translate(0 333.5)"/><line class="c" x2="375.5" transform="translate(0 353.5)"/><line class="c" x2="375.5" transform="translate(0 373.5)"/><line class="c" x2="375.5" transform="translate(0 393.5)"/><line class="c" x2="375.5" transform="translate(0 413.5)"/><line class="c" x2="375.5" transform="translate(0 433.5)"/><line class="c" x2="375.5" transform="translate(0 453.5)"/><line class="c" x2="375.5" transform="translate(0 473.5)"/><line class="c" x2="375.5" transform="translate(0 493.5)"/><line class="c" x2="375.5" transform="translate(0 513.5)"/><line class="c" x2="375.5" transform="translate(0 533.5)"/><line class="c" x2="64.085" transform="translate(0 553.5)"/><path d="M1.5,1.5H253.785v379h-7.148V360.049l-3.928,1L31.814,381.5,1.5,380.5Z" transform="translate(60 172)"/><path class="b" d="M1.5,1.5,234.016,20.476V358.441L1.5,379.225Z" transform="translate(63.101 173.276)"/><path class="b" d="M1.5,1.5,209.684,19.572V337.04L1.5,355.112Z" transform="translate(78.245 184.875)"/><g transform="translate(264.135 259.278)"><g class="c" transform="translate(0 0)"><rect class="d" width="9.036" height="204.216" rx="4.518"/><rect class="e" x="1.5" y="1.5" width="6.036" height="201.216" rx="3.018"/></g><g class="b" transform="translate(2.711 0)"><rect class="d" width="9.036" height="204.216" rx="4.518"/><rect class="e" x="1.5" y="1.5" width="6.036" height="201.216" rx="3.018"/></g></g><line class="c" x2="69" transform="translate(306.5 552.5)"/><g transform="translate(7 -1525)"><path class="b" d="M20.169-.64C30.449.516,46.27,4.293,47.507,9.872s-12.93,4.623-22.284,4.566c-6.715.049-15.485.7-19.583-1.7s-7.021-6.519-6.256-10S9.889-1.8,20.169-.64Z" transform="translate(93.965 2158.947) rotate(-17)"/><path class="b" d="M11.9,2.466c5.794,0,8.674,1.43,10.4,6.041s-1.5,7.875-9.324,7.22S1.939,11.86,2.017,8.577,6.1,2.466,11.9,2.466Z" transform="translate(67.824 2166.869) rotate(-17)"/><path class="b" d="M18.284.207c7.319.823,12.33,3.109,13.211,7.081s-5.569,7.26-11.515,9.659-9.35,1.641-12.268-.061S-.506,6.079.039,3.6,10.965-.616,18.284.207Z" transform="matrix(0.839, -0.545, 0.545, 0.839, 242.563, 2125.831)"/><path class="b" d="M7.988,0C12.672,0,15,1.156,16.4,4.884s-1.21,6.367-7.539,5.837S-.063,7.595,0,4.941,3.3,0,7.988,0Z" transform="translate(237.358 2132.087) rotate(24)"/><path class="b" d="M17.512-.7C26.485.312,40.295,3.609,41.374,8.479s-11.287,4.035-19.451,3.985c-5.861.043-13.516.607-17.094-1.48S-1.3,5.293-.632,2.251,8.538-1.705,17.512-.7Z" transform="translate(181.191 2118.328) rotate(-25)"/><path class="b" d="M10.64,2.466c5.057,0,7.571,1.248,9.08,5.273s-1.306,6.874-8.139,6.3S1.948,10.666,2.017,7.8,5.583,2.466,10.64,2.466Z" transform="translate(159.049 2128.09) rotate(-25)"/><path class="b" d="M17.512-.7C26.485.312,40.295,3.609,41.374,8.479s-11.287,4.035-19.451,3.985c-5.861.043-13.516.607-17.094-1.48S-1.3,5.293-.632,2.251,8.538-1.705,17.512-.7Z" transform="translate(171.191 2158.328) rotate(-25)"/><path class="b" d="M10.64,2.466c5.057,0,7.571,1.248,9.08,5.273s-1.306,6.874-8.139,6.3S1.948,10.666,2.017,7.8,5.583,2.466,10.64,2.466Z" transform="translate(149.049 2168.09) rotate(-25)"/><path class="b" d="M14.142.041C19.8.63,23.66,2.366,24.316,5.433s-4.355,5.652-8.971,7.547-7.243,1.33-9.49.033S-.431,4.706.007,2.782,8.486-.548,14.142.041Z" transform="translate(233.461 2072.505) rotate(-12)"/><path class="b" d="M6.13-.016c3.595-.009,5.379.887,6.444,3.791s-.941,4.967-5.8,4.567S-.063,5.922-.009,3.853,2.535-.007,6.13-.016Z" transform="translate(224.507 2079.299) rotate(24)"/><path class="b" d="M9.525.108c3.813.429,6.423,1.62,6.882,3.689s-2.9,3.782-6,5.032S5.537,9.684,4.017,8.8s-4.281-5.63-4-6.923S5.712-.321,9.525.108Z" transform="matrix(0.839, -0.545, 0.545, 0.839, 273.96, 2067.767)"/><path class="b" d="M4.161,0C6.6,0,7.814.6,8.542,2.544s-.63,3.317-3.927,3.041S-.033,3.957,0,2.574,1.721,0,4.161,0Z" transform="translate(271.248 2073.026) rotate(24)"/></g></g></svg>