<svg xmlns="http://www.w3.org/2000/svg" viewBox="-272.916 3133.331 151.318 246.417"><defs><style>.a{fill:#fff;}.a,.b{stroke:#000;stroke-width:3px;}.b{fill:none;}.c{opacity:0.256;}.d{opacity:0.225;}.e{opacity:0.227;}.f{opacity:0.228;}</style></defs><path class="a" d="M-271.589,3348.835s-.372,12.128,7.358,17.838,48.242,12.78,67.928,11.358,69.162-5.45,70.5-14.691,1.668-16.107,1.668-16.107-21.942,12.963-70.1,12.963S-271.589,3348.835-271.589,3348.835Z" transform="translate(0.182)"/><g transform="translate(-271.41 3138.084)"><g transform="translate(0 140.94)"><path class="a" d="M125.481,10.7c24.244,11.26,26.511,57.27,26.511,57.27S113.376,78.408,76.574,78.408,4.782,67.971,4.782,67.971.925,25.316,30.927,10.7,101.238-.559,125.481,10.7Z" transform="translate(-4.484 -0.957)"/><path class="a" d="M-.5,1.5S25.013,12.815,72.378,12.815,146.6,1.5,146.6,1.5l1.132,11.315S128.557,25.193,72.378,25.193-.5,12.815-.5,12.815Z" transform="translate(0.5 55.69)"/></g><g transform="translate(19.939 0)"><g transform="translate(5.601)"><path class="a" d="M68.045-43.914,95.833,96.707s-14.223,8.584-46.971,8.584S1.5,96.707,1.5,96.707Z" transform="translate(-1.5 43.914)"/><path class="b" d="M-601.262,2704.889l-55.006,125.221" transform="translate(670.729 -2685.283)"/><path class="b" d="M-601.051,2704.889l-47.1,108.579" transform="translate(675.389 -2665.801)"/><path class="b" d="M-600.809,2704.889l-38,91.276" transform="translate(679.043 -2646.32)"/><path class="b" d="M-600.57,2704.889l-29.006,69.062" transform="translate(683.675 -2624.889)"/><path class="b" d="M-600.33,2704.889l-19.977,44.58" transform="translate(687.331 -2600.537)"/><path class="b" d="M-600.078,2704.889l-10.513,21" transform="translate(691.95 -2580.081)"/><path class="b" d="M-613.066,2704.973s9.817,61.383,16.1,85.57,11.177,38.682,11.177,38.682" transform="translate(669.61 -2685.285)"/><path class="b" d="M-613.066,2704.973s9.817,61.383,16.1,85.57,7.011,21.427,7.011,21.427" transform="translate(659.869 -2664.829)"/><path class="b" d="M-613.066,2704.973s7.97,51.214,12.117,68.695,6.792,21.864,6.792,21.864" transform="translate(649.154 -2646.321)"/><path class="b" d="M-613.066,2704.973s3.556,32.756,6.431,43.309a131.915,131.915,0,0,0,7.812,20.578" transform="translate(640.387 -2620.995)"/><path class="b" d="M-613.066,2704.973s.152,15.572,3.027,26.125,6.982,16.337,6.982,16.337" transform="translate(629.672 -2600.539)"/></g><path class="a" d="M-673.71,2828.8s-6.822,12.789-4.768,16.3,26.384,10.062,51.6,10.612,50.86-7.77,51.479-10.612-4.257-16.3-4.257-16.3-24.308,6.74-47.222,6.74S-673.71,2828.8-673.71,2828.8Z" transform="translate(678.863 -2688.493)"/></g></g><path class="c" d="M-241.157,2655.883c-.331,1.867-28.757,130.468-28.757,130.468a96.248,96.248,0,0,0,20.583.953c10.993-.733,31.345-5.841,31.345-5.841Z" transform="translate(60.702 493.618)"/><path class="d" d="M-205.68,2815.506a110.221,110.221,0,0,1,8.856,13.308c4.157,7.423,4.912,17.334,4.912,17.334s-13.281,6.816-41.359,9.763a215.337,215.337,0,0,1-51.663-.953l11.363-31.013a110.16,110.16,0,0,0,29.024,0C-228.289,2821.836-205.68,2815.506-205.68,2815.506Z" transform="translate(61.408 486.115)"/><path class="e" d="M-285.088,2865.014l-3.138,6.224a351.454,351.454,0,0,0,49.258.953c26.216-1.432,50.251-10.554,50.251-10.554l-.66-4.978s-28.263,7.626-49.591,9.309S-285.088,2865.014-285.088,2865.014Z" transform="translate(61.563 484.182)"/><path class="e" d="M-285.978,2864.967l-.9,8.441a302.8,302.8,0,0,0,47.973,1.251c26.216-1.432,50.544-9.692,50.544-9.692v-9.309s-29.216,8.579-50.544,10.262S-285.978,2864.967-285.978,2864.967Z" transform="translate(59.593 498.523)"/><path class="f" d="M-268.131,2801.486l-2.32,12.579s15.837,1.759,30.15,0a124.734,124.734,0,0,0,27.5-7.059l-3.448-10.931a168.772,168.772,0,0,1-27.223,5.411A107.434,107.434,0,0,1-268.131,2801.486Z" transform="translate(61.68 486.076)"/></svg>