<svg xmlns="http://www.w3.org/2000/svg" viewBox="321.397 3123.154 243.379 270.423"><defs><style>.a,.b{fill:#fff;stroke:#000;}.a{stroke-width:3px;}.c{stroke:none;}.d{fill:none;}</style></defs><g transform="translate(-135 14)"><g transform="translate(-251 2668.952)"><path class="a" d="M10.009,1.5H244.63V8.638H10.009Z" transform="translate(700.094 561.885)"/><g class="a" transform="translate(920.879 570.334)"><rect class="c" width="18.966" height="138.933"/><rect class="d" x="1.5" y="1.5" width="15.966" height="135.933"/></g><path class="a" d="M14.983,1.5H235.6L245.94,7.73H10.78Z" transform="translate(699.439 555)"/><path class="a" d="M12.768,1.5H6.5V130.479l6.268,6.677Z" transform="translate(715.551 569.678)"/><path class="a" d="M5.1,1.5H1.5V130.479l3.6,6.889Z" transform="translate(916.061 570.805)"/><g class="a" transform="translate(727.129 570.334)"><rect class="c" width="192.06" height="30.908"/><rect class="d" x="1.5" y="1.5" width="189.06" height="27.908"/></g><g transform="translate(2 2)"><g class="a" transform="translate(725.129 596.334)"><rect class="c" width="78.06" height="29.908"/><rect class="d" x="1.5" y="1.5" width="75.06" height="26.908"/></g><g class="a" transform="translate(725.129 623.334)"><rect class="c" width="78.06" height="29.908"/><rect class="d" x="1.5" y="1.5" width="75.06" height="26.908"/></g><g class="a" transform="translate(725.129 650.334)"><rect class="c" width="78.06" height="29.908"/><rect class="d" x="1.5" y="1.5" width="75.06" height="26.908"/></g><g class="a" transform="translate(725.129 677.334)"><rect class="c" width="78.06" height="29.908"/><rect class="d" x="1.5" y="1.5" width="75.06" height="26.908"/></g></g><g class="a" transform="translate(786.166 608.219)"><circle class="c" cx="5.351" cy="5.351" r="5.351"/><circle class="d" cx="5.351" cy="5.351" r="3.851"/></g><g class="a" transform="translate(786.166 636.219)"><circle class="c" cx="5.351" cy="5.351" r="5.351"/><circle class="d" cx="5.351" cy="5.351" r="3.851"/></g><g class="a" transform="translate(786.166 662.219)"><circle class="c" cx="5.351" cy="5.351" r="5.351"/><circle class="d" cx="5.351" cy="5.351" r="3.851"/></g><g class="a" transform="translate(786.166 690.219)"><circle class="c" cx="5.351" cy="5.351" r="5.351"/><circle class="d" cx="5.351" cy="5.351" r="3.851"/></g></g><g transform="translate(-753.528 -288.352)"><path d="M.5.5H49.115V3.651H.5Z" transform="translate(1325.511 3511.967)"/><g class="a" transform="translate(1332.481 3477.111)"><rect class="c" width="35.026" height="30.477"/><rect class="d" x="1.5" y="1.5" width="32.026" height="27.477"/></g><rect width="134.731" height="89.28" rx="7" transform="translate(1282.813 3397.506)"/><g class="b" transform="translate(1287.683 3402.376)"><rect class="c" width="124.991" height="80.352" rx="7"/><rect class="d" x="0.5" y="0.5" width="123.991" height="79.352" rx="6.5"/></g><path class="a" d="M-4.951.5H29.62l4.549,4.65H-9.5Z" transform="translate(1337.659 3506.406)"/><rect width="44.816" height="3.301" transform="translate(1297.627 3413.028)"/><rect width="33.164" height="3.301" transform="translate(1297.627 3418.215)"/><rect width="42.127" height="3.301" transform="translate(1297.627 3423.402)"/><rect width="47.505" height="3.301" transform="translate(1297.627 3428.59)"/><rect width="37.645" height="3.301" transform="translate(1297.627 3433.777)"/><rect width="44.816" height="3.301" transform="translate(1297.627 3438.845)"/></g><g transform="translate(-647 -369.899)"><path class="a" d="M10.772,1.5h165.96L186,10.881H1.5Z" transform="translate(1123.891 3585.389)"/><rect width="187.285" height="4.32" transform="translate(1124 3596.579)"/><path d="M2.764,1.5H26.125l.523,2.187H1.5Z" transform="translate(1131.308 3587.364)"/><path d="M2.411,1.5H19.26l.377,2.187H1.5Z" transform="translate(1129.454 3590.45)"/><path d="M2.055,1.5H12.31l.229,2.187H1.5Z" transform="translate(1183.115 3587.364)"/><path d="M2.055,1.5H12.31l.229,2.187H1.5Z" transform="translate(1169.321 3590.45)"/><path d="M2.055,1.5H12.31l.229,2.187H1.5Z" transform="translate(1183.115 3587.364)"/><path d="M2.055,1.5H12.31l.229,2.187H1.5Z" transform="translate(1169.321 3590.45)"/><path d="M2.055,1.5H12.31l.229,2.187H1.5Z" transform="translate(1196.095 3587.364)"/><path d="M2.055,1.5H12.31l.229,2.187H1.5Z" transform="translate(1182.301 3590.45)"/><path d="M2.055,1.5H12.31l.229,2.187H1.5Z" transform="translate(1196.095 3587.364)"/><path d="M2.055,1.5H12.31l.229,2.187H1.5Z" transform="translate(1182.301 3590.45)"/><path d="M2.055,1.5H12.31l.229,2.187H1.5Z" transform="translate(1209.075 3587.364)"/><path d="M2.055,1.5H12.31l.229,2.187H1.5Z" transform="translate(1195.281 3590.45)"/><path d="M2.055,1.5H12.31l.229,2.187H1.5Z" transform="translate(1209.075 3587.364)"/><path d="M2.055,1.5H12.31l.229,2.187H1.5Z" transform="translate(1195.281 3590.45)"/><path d="M2.055,1.5H12.31l.229,2.187H1.5Z" transform="translate(1222.056 3587.364)"/><path d="M2.055,1.5H12.31l.229,2.187H1.5Z" transform="translate(1208.261 3590.45)"/><path d="M2.055,1.5H12.31l.229,2.187H1.5Z" transform="translate(1222.056 3587.364)"/><path d="M2.055,1.5H12.31l.229,2.187H1.5Z" transform="translate(1208.261 3590.45)"/><path d="M2.055,1.5H12.31l.229,2.187H1.5Z" transform="translate(1235.036 3587.364)"/><path d="M2.055,1.5H12.31l.229,2.187H1.5Z" transform="translate(1221.242 3590.45)"/><path d="M2.055,1.5H12.31l.229,2.187H1.5Z" transform="translate(1235.036 3587.364)"/><path d="M2.055,1.5H12.31l.229,2.187H1.5Z" transform="translate(1221.242 3590.45)"/><path d="M2.055,1.5H12.31l.229,2.187H1.5Z" transform="translate(1248.016 3587.364)"/><path d="M2.055,1.5H12.31l.229,2.187H1.5Z" transform="translate(1234.222 3590.45)"/><path d="M2.055,1.5H12.31l.229,2.187H1.5Z" transform="translate(1248.016 3587.364)"/><path d="M2.055,1.5H12.31l.229,2.187H1.5Z" transform="translate(1234.222 3590.45)"/><path d="M2.055,1.5H12.31l.229,2.187H1.5Z" transform="translate(1260.996 3587.364)"/><path d="M2.055,1.5H12.31l.229,2.187H1.5Z" transform="translate(1247.202 3590.45)"/><path d="M2.055,1.5H12.31l.229,2.187H1.5Z" transform="translate(1260.996 3587.364)"/><path d="M2.055,1.5H12.31l.229,2.187H1.5Z" transform="translate(1247.202 3590.45)"/><path d="M2.055,1.5H12.31l.229,2.187H1.5Z" transform="translate(1273.976 3587.364)"/><path d="M2.055,1.5H12.31l.229,2.187H1.5Z" transform="translate(1260.182 3590.45)"/><path d="M2.055,1.5H12.31l.229,2.187H1.5Z" transform="translate(1273.976 3587.364)"/><path d="M2.055,1.5H12.31l.229,2.187H1.5Z" transform="translate(1260.182 3590.45)"/><path d="M2.055,1.5H12.31l.229,2.187H1.5Z" transform="translate(1286.029 3587.364)"/><path d="M2.055,1.5H12.31l.229,2.187H1.5Z" transform="translate(1272.235 3590.45)"/><path d="M2.055,1.5H12.31l.229,2.187H1.5Z" transform="translate(1286.029 3587.364)"/><path d="M2.055,1.5H12.31l.229,2.187H1.5Z" transform="translate(1272.235 3590.45)"/><path d="M2.055,1.5H12.31l.229,2.187H1.5Z" transform="translate(1285.215 3590.45)"/><path d="M2.055,1.5H12.31l.229,2.187H1.5Z" transform="translate(1156.341 3590.45)"/></g></g></svg>