<svg xmlns="http://www.w3.org/2000/svg" viewBox="3490.855 2588.39 293.66 243.703"><defs><style>.a{fill:#fff;}.a,.b{stroke:#000;stroke-width:3px;}.b{fill:none;}.c{font-size:18px;font-family:PingFangHK-Medium, PingFang HK;font-weight:500;}</style></defs><g transform="translate(479 -573)"><g transform="translate(-8.145 20.167)"><path class="a" d="M149.749.723C261.4.723,292.16,47.612,292.16,104.542S267.921,208.48,149.749,208.48c-20,0-89.082,31.771-89.082,31.771s10.44-41.2,0-45.31C15.285,177.077,1.5,143.083,1.5,104.542,1.5,47.612,38.1.723,149.749.723Z" transform="translate(3020 3142)"/><path class="b" d="M3151.906,3164.388s68.935-8.072,107.519,16.927,36.3,54.587,36.3,54.587" transform="translate(-6.514 -1.02)"/></g><text class="c" transform="translate(3082 3220)"><tspan x="0" y="19">最初的快乐去哪了</tspan><tspan x="0" y="44">童年的纯真去哪了</tspan><tspan x="0" y="69"></tspan><tspan x="0" y="94">“幸福感不见了”</tspan></text></g></svg>