<svg xmlns="http://www.w3.org/2000/svg" viewBox="4547.73 2496.381 277.869 230.689"><defs><style>.a{fill:#fff;}.a,.b{stroke:#000;stroke-width:3px;}.b{fill:none;}.c{font-size:18px;font-family:PingFangHK-Medium, PingFang HK;font-weight:500;}</style></defs><g transform="translate(1530 -946)"><g transform="translate(-2.27 301.159)"><path class="a" d="M141.695.723C247.28.723,276.369,45.065,276.369,98.9c0,27.726-19.455,85.488-19.455,85.488s-61.02,12.8-115.22,12.8c-18.914,0-84.242,30.045-84.242,30.045s9.873-38.961,0-42.848C14.536,167.5,1.5,135.349,1.5,98.9,1.5,71.606,19.752.723,19.752.723Z" transform="translate(3020 3142)"/><path class="b" d="M3151.905,3164.32s65.19-7.634,101.678,16.007,34.331,51.621,34.331,51.621" transform="translate(-13.243 -2.074)"/></g><text class="c" transform="translate(3099 3492)"><tspan x="0" y="19">100个清单</tspan><tspan x="0" y="44">100条信息</tspan><tspan x="0" y="69"></tspan><tspan x="0" y="94">“时间被偷了”</tspan></text></g></svg>