<svg xmlns="http://www.w3.org/2000/svg" viewBox="-1233.032 3212.676 315.26 409.558"><defs><style>.a{fill:#fff;stroke-width:3px;}.a,.b{stroke:#000;}.b,.d{fill:none;}.b{stroke-width:2.5px;font-size:36px;font-family:ClanPro-Medium, Clan Pro;font-weight:500;}.c{stroke:none;}</style></defs><g transform="translate(-1259 3047)"><path class="a" d="M-3.975,1.5,37.707,8.113,202.238,1.5l43.277,6.613,43.213-4.143v54.74L271.5,177.746l5.5,119.32,11.725,57.686V407.4L240,397.445l-54.773-2.781L49.9,407.4-23,397.445,3.447,323.063l3.646-166.8L1.5,116.668l8.818-48.18Z" transform="translate(51 166)"/><text class="b" transform="translate(86 195)"><tspan x="22.21" y="36">WANTED</tspan></text><g class="a" transform="translate(83 262)"><rect class="c" width="210" height="210"/><rect class="d" x="1.5" y="1.5" width="207" height="207"/></g><g class="a" transform="translate(93 272)"><rect class="c" width="190" height="190"/><rect class="d" x="1.5" y="1.5" width="187" height="187"/></g><g class="a" transform="translate(83 491)"><rect class="c" width="210" height="40"/><rect class="d" x="1.5" y="1.5" width="207" height="37"/></g><g class="a" transform="translate(52 536)"><circle class="c" cx="9.5" cy="9.5" r="9.5"/><circle class="d" cx="9.5" cy="9.5" r="8"/></g><g class="a" transform="translate(307 536)"><circle class="c" cx="9.5" cy="9.5" r="9.5"/><circle class="d" cx="9.5" cy="9.5" r="8"/></g><g class="a" transform="translate(310 185)"><circle class="c" cx="9.5" cy="9.5" r="9.5"/><circle class="d" cx="9.5" cy="9.5" r="8"/></g><g class="a" transform="translate(62 181)"><circle class="c" cx="9.5" cy="9.5" r="9.5"/><circle class="d" cx="9.5" cy="9.5" r="8"/></g></g></svg>