<svg xmlns="http://www.w3.org/2000/svg" viewBox="-1223.484 3984.728 303.197 406.542"><defs><style>.a{fill:#fff;}.a,.b,.c,.e,.f{stroke:#000;}.a,.c,.e{stroke-width:3px;}.b,.c,.f,.h{fill:none;}.b{stroke-width:2.5px;font-size:36px;font-family:ClanPro-Medium, Clan Pro;}.b,.d{font-weight:500;}.d{font-size:19px;font-family:PingFangHK-Medium, PingFang HK;}.f{stroke-width:2px;}.g{stroke:none;}</style></defs><g transform="translate(-1259 3818)"><path class="a" d="M-13.391,2.5l53.1,6.613L202.238,2.5l43.277,5.613L285.729,3.5,277,67.117l-5.5,110.629,5.5,119.32L271.5,349l14.2,56.4L240,397.445l-54.773-2.781L49.9,405.4l-63.295-7.951L3.447,323.063l3.646-131.27L-9.242,125.648,7.094,71.281Z" transform="translate(51 166)"/><text class="b" transform="translate(86 195)"><tspan x="22.21" y="36">WANTED</tspan></text><g class="a" transform="translate(52 536)"><circle class="g" cx="9.5" cy="9.5" r="9.5"/><circle class="h" cx="9.5" cy="9.5" r="8"/></g><g class="a" transform="translate(303 536)"><circle class="g" cx="9.5" cy="9.5" r="9.5"/><circle class="h" cx="9.5" cy="9.5" r="8"/></g><g class="a" transform="translate(310 185)"><circle class="g" cx="9.5" cy="9.5" r="9.5"/><circle class="h" cx="9.5" cy="9.5" r="8"/></g><g class="a" transform="translate(59 184)"><circle class="g" cx="9.5" cy="9.5" r="9.5"/><circle class="h" cx="9.5" cy="9.5" r="8"/></g><g transform="translate(1768.025 -4111.495)"><path class="a" d="M102.454,39.789c26.058,0,77.829,13.165,77.829,13.165l16.495,60.175,9.762,40.6H2.391l8.07-40.6L25.336,52.955S75.1,39.789,102.454,39.789Z" transform="translate(-1685.512 4457.929)"/><line class="c" x2="199.296" y2="0.548" transform="translate(-1683.122 4483.884)"/><line class="c" x2="199.296" transform="translate(-1683.122 4438.882)"/><line class="c" x2="199.296" y2="0.368" transform="translate(-1683.122 4393.881)"/><path d="M2.721,0H168.439l4.182,21.989H-1.191Z" transform="translate(-1668.218 4527.097)"/><path d="M-6.614,0h190.16l5.193,22.715H-12.145Z" transform="translate(-1669.909 4577.206)"/><g transform="translate(-1657.198 4550.49)"><text class="d" transform="translate(2)"><tspan x="38.841" y="20">No.0721</tspan></text></g><g transform="translate(-1690.491 4590.593)"><g class="a" transform="translate(0 21.613) rotate(-25)"><rect class="g" width="47.853" height="29.762" rx="14.881"/><rect class="h" x="1.5" y="1.5" width="44.853" height="26.762" rx="13.381"/></g><g class="a" transform="translate(28.254)"><circle class="g" cx="17.215" cy="17.215" r="17.215"/><circle class="h" cx="17.215" cy="17.215" r="15.715"/></g></g><path d="M29.752,3.582c33.05,0,77.914,13.922,77.914,13.922H-46.977S-3.3,3.582,29.752,3.582Z" transform="translate(-1612.88 4493.995)"/><g transform="translate(-1537.989 4589.229)"><path class="a" d="M14.77,29.537l19.135-.057A14.885,14.885,0,0,0,48.764,14.7,14.67,14.67,0,0,0,33.994,0L14.859.058A14.885,14.885,0,0,0,0,14.842,14.67,14.67,0,0,0,14.77,29.537Z" transform="translate(52.624 49.95) rotate(-155)"/><g class="a" transform="translate(0 0)"><ellipse class="g" cx="18.235" cy="18.092" rx="18.235" ry="18.092"/><ellipse class="h" cx="18.235" cy="18.092" rx="16.735" ry="16.592"/></g></g><g class="a" transform="translate(-1653.387 4366.266)"><circle class="g" cx="69.207" cy="69.207" r="69.207"/><circle class="h" cx="69.207" cy="69.207" r="67.707"/></g><path d="M8.607-2.787c5.918-3.231.211,5.974,5.307,14.8s11.732,7.6,4.485,11.779S0,19.287,0,12.014,2.688.444,8.607-2.787Z" transform="translate(-1684.665 4609.72)"/><path d="M8.607.677c5.918-3.231-.16,5.61,4.035,15.641S26.223,25.7,18.977,29.881,0,22.751,0,15.478,2.688,3.908,8.607.677Z" transform="translate(-1497.333 4640.291) rotate(-120)"/><g class="a" transform="matrix(0.342, 0.94, -0.94, 0.342, -1506.324, 4578.82)"><ellipse class="g" cx="13.955" cy="8.682" rx="13.955" ry="8.682"/><ellipse class="h" cx="13.955" cy="8.682" rx="12.455" ry="7.182"/></g><g transform="translate(-1620.508 4379.394)"><path class="e" d="M-1755.887,4792.27h16.515s3.523-17.555,21.06-17.722,22.944,8.068,22.212,25.91-29.391,34.3-29.391,34.3v13.686h14.735v-9.226s28.448-15.938,29.906-38.761-5.211-30.528-15.249-37.494-25.953-9.549-41.873,0S-1755.887,4792.27-1755.887,4792.27Z" transform="translate(1754.887 -4756.733)"/><g class="e" transform="translate(27.784 101.602)"><circle class="g" cx="8.362" cy="8.362" r="8.362"/><circle class="h" cx="8.362" cy="8.362" r="6.862"/></g></g><g transform="translate(-1671.928 4571.452)"><path class="a" d="M-1836.128,4887.209l4.892,6.366-9.209,3.831-9.486,5.939s-6.026,3.121-6.026,7.377,1.643,7.235,6.026,9.647,6.831,1.864,11.505,0,2.919-2.749,8.573-6.544,10.844-5.158,14.042-8.635,3.924-13.292,3.924-13.292l-1.358-9.714-21.589-5.477Z" transform="translate(1897.129 -4842.738)"/><path class="a" d="M-1947.127,4826.911l-2.664,10.439s5.9,30.38,7.807,31.867,8.667,3.8,10.077,2.822,3.233-2.042,3.233-2.822-3.233-31.867-3.233-31.867l3.233-15.28h-7.731Z" transform="translate(1949.791 -4809.88)"/><path class="a" d="M-1906.146,4811.622l-3.5,19.734v17.7l3.5,12.656,10.179,1.971,4.443-4.232s-2.959-3.714-2.968-6.384,2.968-14.721,2.968-14.721l3.722-21.407,1.787-11.258-16.373,2.6Z" transform="translate(1927.263 -4800.684)"/><path class="a" d="M-1867.061,4798.025l-4.195,22.763s-2.231,12.965-2.45,13.785-1.84,4.548-2.069,5.358,0,8.352,0,8.352,3.726,5.379,4.519,5.759a47.873,47.873,0,0,0,7.981,1.487c1.258,0,9.705-7.246,9.705-7.246l4.51-22.257,3.288-15.748-1.6-9.306-11.059-6.683Z" transform="translate(1908.308 -4794.289)"/><path class="a" d="M-1809.611,4843.841c4.207,3.508,5.754,5.357,11.261,5.357s9.206-1.363,12.023-5.357,0-11.373,0-11.373l-2.325-13.869-7.56-6.883-16.251-1.344-1.963,24.042S-1813.818,4840.333-1809.611,4843.841Z" transform="translate(1873.821 -4803.316)"/></g><path class="f" d="M1.168,2S1.793.35,7.026.046,13.51,1.056,13.51,1.056l.94,3.37a25.225,25.225,0,0,0-7.424-.52A36.236,36.236,0,0,0,0,5.263Z" transform="translate(-1604.789 4602.992) rotate(-10)"/><path class="f" d="M.924,2.21S1.418.387,5.557.05,10.684,1.17,10.684,1.17L11.428,4.9a14.491,14.491,0,0,0-5.871-.575A21.729,21.729,0,0,0,0,5.828Z" transform="translate(-1615.746 4634.604) rotate(70)"/></g></g></svg>