<svg xmlns="http://www.w3.org/2000/svg" viewBox="-736.208 3116.472 294.972 427.658"><defs><style>.a{font-size:25px;}.a,.c{font-family:PingFangHK-Medium, PingFang HK;font-weight:500;}.b{fill:#fff;stroke:#000;stroke-width:3px;}.c{font-size:23px;}.d{font-size:16px;font-family:PingFangHK-Regular, PingFang HK;font-weight:400;}.e{stroke:none;}.f{fill:none;}</style></defs><g transform="translate(-777 3047)"><text class="a" transform="translate(69 113.241)"><tspan x="81.5" y="27">通缉令</tspan></text><g transform="translate(103.908 70.972)"><path class="b" d="M-7.874-11.448H-18.95v-5.491c0-1.84,1.011-2.668,3.742-2.668h7.334c3.527,0,4.509,1.35,4.509,4.11s-.981,4.049-4.509,4.049M-18.95-31.784h9.91c3.312,0,4.233,1.248,4.233,3.834s-.921,3.834-4.233,3.834h-9.91Zm16.965,9.355c2.453-1.289,3.466-3.712,3.466-6.564,0-6.625-5.4-7.607-10.981-7.607H-22.26c-2.117,0-2.914.644-2.914,2.086v26.1c0,1.227.614,1.779,2.239,1.779h15.7c5.921,0,10.154-2.3,10.154-8.282,0-3.589-1.534-6.625-4.907-7.515" transform="translate(75.138 36.6)"/><path class="b" d="M-9.037-2.22a.832.832,0,0,0,.884-.491l1.735-4.018c.1-.245,0-.369-.262-.369H-30.811c-2.259,0-3.11.645-3.11,2.087v26.1c0,1.227.654,1.779,2.39,1.779H-9.037a.832.832,0,0,0,.884-.491l1.735-4.019c.1-.245,0-.368-.262-.368H-27.275V12.686c0-1.84,1.08-2.668,3.994-2.668h8.94a.832.832,0,0,0,.884-.491l1.67-3.865c.1-.245,0-.368-.263-.368H-27.275V-2.22Z" transform="translate(132.766 7.156)"/><g transform="translate(0 0.417)"><path class="b" d="M-27.21-.347V16.175c0,5.517,2.434,7.808,8.143,7.808s8.145-2.291,8.145-7.808V-1.07h5.5A.638.638,0,0,1-4.7-.347V16.446c0,9.226-5.86,12.452-14.365,12.452s-14.364-3.226-14.364-12.452V-1.07h5.5a.638.638,0,0,1,.721.723" transform="translate(33.431 1.07)"/></g><path class="b" d="M-7.58-6.324H-18.01V-15.4H-7.58c3.9,0,4.754,1.5,4.754,4.538,0,3.068-.859,4.54-4.754,4.54M4.136,9.227-2.582-2.306c3.345-.858,6.043-3.067,6.043-8.68,0-7.269-4.508-9.233-11.962-9.233H-21.322c-2.117,0-2.913.644-2.913,2.086V9.012a.651.651,0,0,0,.735.737h5.49V1.007c0-1.84,1.012-2.668,3.743-2.668h5.521l6.074,10.92a.836.836,0,0,0,.828.491h5.7c.4,0,.4-.339.277-.522" transform="translate(171.883 20.243)"/></g><g class="b" transform="translate(117.431 199.703) rotate(9)"><rect class="e" width="209.898" height="259.874"/><rect class="f" x="1.5" y="1.5" width="206.898" height="256.874"/></g><g class="b" transform="matrix(0.966, 0.259, -0.259, 0.966, 133.018, 191.785)"><rect class="e" width="209.898" height="259.874"/><rect class="f" x="1.5" y="1.5" width="206.898" height="256.874"/></g><text class="c" transform="matrix(0.966, 0.259, -0.259, 0.966, 138.818, 229.008)"><tspan x="8.457" y="24">优步极简博物馆</tspan><tspan x="88.957" y="56"></tspan><tspan class="d"><tspan x="8.197" y="81">2017年6月30至7月2日</tspan><tspan x="40.957" y="103">深圳市南山区</tspan><tspan x="24.333" y="125">益田假日广场B1层</tspan><tspan x="88.957" y="147"></tspan><tspan x="48.957" y="169">速速归还！</tspan></tspan></text><g transform="translate(-339.944 -192.757) rotate(-9)"><g class="b" transform="translate(322.626 480.608)"><rect class="e" width="15.558" height="28.523"/><rect class="f" x="1.5" y="1.5" width="12.558" height="25.523"/></g><g class="b" transform="translate(314.847 459)"><circle class="e" cx="15.126" cy="15.126" r="15.126"/><circle class="f" cx="15.126" cy="15.126" r="13.626"/></g><path class="b" d="M1.229,1.5H44.445l1.729,16.422H-.5Z" transform="translate(308 502.877)"/></g><g transform="translate(5 12)"><g class="b" transform="translate(214 420)"><circle class="e" cx="18" cy="18" r="18"/><circle class="f" cx="18" cy="18" r="16.5"/></g><g class="b" transform="translate(220 426)"><circle class="e" cx="12" cy="12" r="12"/><circle class="f" cx="12" cy="12" r="10.5"/></g></g></g></svg>